<svg width="40" height="40" viewBox="0 0 40 40" fill="none" xmlns="http://www.w3.org/2000/svg">
<circle cx="20" cy="20" r="20" fill="white"/>
<path d="M17 22C17.5523 22 18 21.5523 18 21C18 20.4477 17.5523 20 17 20C16.4477 20 16 20.4477 16 21C16 21.5523 16.4477 22 17 22Z" fill="white"/>
<path d="M24 22C24.5523 22 25 21.5523 25 21C25 20.4477 24.5523 20 24 20C23.4477 20 23 20.4477 23 21C23 21.5523 23.4477 22 24 22Z" fill="white"/>
<path d="M20.4014 23.0483L19.0272 24.7967C18.9625 24.878 19.0204 25 19.1258 25H21.8742C21.9796 25 22.0375 24.878 21.9728 24.7967L20.5986 23.0483C20.5476 22.9839 20.449 22.9839 20.4014 23.0483Z" fill="white"/>
<path d="M33 22.7316C33 29.2102 27.4053 30 20.5 30C13.5947 30 8 29.2139 8 22.7316C8 16.2492 13.5947 11 20.5 11C27.4053 11 33 16.2529 33 22.7316Z" fill="#F3BE3B"/>
<path d="M11 18L11.2637 11.2728C11.3023 10.326 12.1286 9.72565 12.8457 10.1259L18 12.9892L11 18Z" fill="#F3BE3B"/>
<path d="M29.9963 18L29.6951 11.2728C29.6511 10.326 28.7071 9.72565 27.888 10.1259L22 12.9892L30 18H29.9963Z" fill="#F3BE3B"/>
<path d="M17.1 22.2C17.7075 22.2 18.2 21.7075 18.2 21.1C18.2 20.4925 17.7075 20 17.1 20C16.4925 20 16 20.4925 16 21.1C16 21.7075 16.4925 22.2 17.1 22.2Z" fill="white"/>
<path d="M24.1 22.2C24.7075 22.2 25.2 21.7075 25.2 21.1C25.2 20.4925 24.7075 20 24.1 20C23.4925 20 23 20.4925 23 21.1C23 21.7075 23.4925 22.2 24.1 22.2Z" fill="white"/>
<path d="M20.4014 22.0483L19.0272 23.7967C18.9625 23.878 19.0204 24 19.1258 24H21.8742C21.9796 24 22.0375 23.878 21.9728 23.7967L20.5986 22.0483C20.5476 21.9839 20.449 21.9839 20.4014 22.0483Z" fill="white"/>
</svg>
