<svg width="108" height="100" viewBox="0 0 108 100" fill="none" xmlns="http://www.w3.org/2000/svg">
<g clip-path="url(#clip0_27_4640)">
<path d="M97.5813 53.3739C97.5813 75.5672 77.5265 78.2767 52.7931 78.2767C28.0596 78.2767 8 75.5672 8 53.3739C8 31.1806 28.0548 13.1821 52.7882 13.1821C77.5217 13.1821 97.5764 31.1758 97.5764 53.3691L97.5813 53.3739Z" fill="#6C60C6"/>
<path d="M17.1492 37.5236L18.1991 15.219C18.3491 12.0789 21.6294 10.0904 24.484 11.4112L44.9404 20.8992L17.1492 37.5236Z" fill="#6C60C6"/>
<path d="M87.4062 37.5236L86.3563 15.219C86.2063 12.0789 82.926 10.0904 80.0714 11.4112L59.615 20.8992L87.4062 37.5188V37.5236Z" fill="#6C60C6"/>
<path d="M41.4521 51.7869C43.5925 51.7869 45.3276 50.0518 45.3276 47.9115C45.3276 45.7711 43.5925 44.036 41.4521 44.036C39.3118 44.036 37.5767 45.7711 37.5767 47.9115C37.5767 50.0518 39.3118 51.7869 41.4521 51.7869Z" fill="white"/>
<path d="M63.9358 51.7869C66.0762 51.7869 67.8113 50.0518 67.8113 47.9115C67.8113 45.7711 66.0762 44.036 63.9358 44.036C61.7954 44.036 60.0603 45.7711 60.0603 47.9115C60.0603 50.0518 61.7954 51.7869 63.9358 51.7869Z" fill="white"/>
<path d="M28.4806 88.8C35.6579 88.8 41.4763 84.6626 41.4763 79.5588C41.4763 74.4551 35.6579 70.3177 28.4806 70.3177C21.3032 70.3177 15.4849 74.4551 15.4849 79.5588C15.4849 84.6626 21.3032 88.8 28.4806 88.8Z" fill="#918CEA"/>
<path d="M69.0692 42.9522H36.2365C35.4963 42.9522 34.8962 43.5522 34.8962 44.2924C34.8962 45.0326 35.4963 45.6326 36.2365 45.6326H69.0692C69.8094 45.6326 70.4094 45.0326 70.4094 44.2924C70.4094 43.5522 69.8094 42.9522 69.0692 42.9522Z" fill="white"/>
<path d="M101.863 41.8539C102.531 40.3976 101.887 38.6751 100.431 38.0074C98.9746 37.3397 97.2522 37.9832 96.5845 39.4396L94.5669 43.8473L99.8939 46.1503L101.863 41.8539Z" fill="#6C60C6"/>
<path d="M94.5718 43.8521L77.6958 80.72C77.0281 82.1764 77.6716 83.8988 79.1279 84.5665C80.5842 85.2342 82.3067 84.5907 82.9744 83.1343L99.9036 46.1551L94.5766 43.8521H94.5718Z" fill="#918CEA"/>
<path d="M52.2126 48.9565L48.1387 54.1529C48.0468 54.269 48.129 54.4432 48.279 54.4432H56.4267C56.5767 54.4432 56.659 54.269 56.5671 54.1529L52.4932 48.9565C52.4206 48.8646 52.2803 48.8646 52.2126 48.9565Z" fill="white"/>
<path d="M80.6473 88.8C87.8246 88.8 93.643 84.6626 93.643 79.5588C93.643 74.4551 87.8246 70.3177 80.6473 70.3177C73.47 70.3177 67.6516 74.4551 67.6516 79.5588C67.6516 84.6626 73.47 88.8 80.6473 88.8Z" fill="#918CEA"/>
</g>
<defs>
<clipPath id="clip0_27_4640">
<rect width="94.1293" height="77.8" fill="white" transform="translate(8 11)"/>
</clipPath>
</defs>
</svg>
