<svg width="108" height="100" viewBox="0 0 108 100" fill="none" xmlns="http://www.w3.org/2000/svg">
<g clip-path="url(#clip0_27_4719)">
<g clip-path="url(#clip1_27_4719)">
<path d="M97.5813 53.3739C97.5813 75.5672 77.5265 78.2767 52.7931 78.2767C28.0596 78.2767 8 75.5672 8 53.3739C8 31.1806 28.0548 13.1821 52.7882 13.1821C77.5217 13.1821 97.5764 31.1758 97.5764 53.3691L97.5813 53.3739Z" fill="#6C60C6"/>
<path d="M17.1492 37.5236L18.1991 15.219C18.3491 12.0789 21.6294 10.0904 24.484 11.4112L44.9404 20.8992L17.1492 37.5236Z" fill="#6C60C6"/>
<path d="M87.4062 37.5236L86.3563 15.219C86.2063 12.0789 82.926 10.0904 80.0714 11.4112L59.615 20.8992L87.4062 37.5188V37.5236Z" fill="#6C60C6"/>
<path d="M41.4521 51.7869C43.5925 51.7869 45.3276 50.0518 45.3276 47.9115C45.3276 45.7711 43.5925 44.036 41.4521 44.036C39.3118 44.036 37.5767 45.7711 37.5767 47.9115C37.5767 50.0518 39.3118 51.7869 41.4521 51.7869Z" fill="white"/>
<path d="M63.9358 51.7869C66.0762 51.7869 67.8113 50.0518 67.8113 47.9115C67.8113 45.7711 66.0762 44.036 63.9358 44.036C61.7954 44.036 60.0603 45.7711 60.0603 47.9115C60.0603 50.0518 61.7954 51.7869 63.9358 51.7869Z" fill="white"/>
<path d="M101.282 44.2382L96.2037 41.9132C94.7542 41.2495 93.0411 41.8866 92.3774 43.3362L75.434 80.3439C74.7703 81.7935 75.4074 83.5066 76.8569 84.1702L81.9353 86.4953C83.3849 87.1589 85.098 86.5218 85.7616 85.0723L102.705 48.0645C103.369 46.615 102.732 44.9019 101.282 44.2382Z" fill="#918CEA"/>
<path d="M80.6473 88.8C87.8246 88.8 93.643 84.6626 93.643 79.5588C93.643 74.4551 87.8246 70.3177 80.6473 70.3177C73.47 70.3177 67.6516 74.4551 67.6516 79.5588C67.6516 84.6626 73.47 88.8 80.6473 88.8Z" fill="#918CEA"/>
<path d="M28.4806 88.8C35.6579 88.8 41.4763 84.6626 41.4763 79.5588C41.4763 74.4551 35.6579 70.3177 28.4806 70.3177C21.3032 70.3177 15.4849 74.4551 15.4849 79.5588C15.4849 84.6626 21.3032 88.8 28.4806 88.8Z" fill="#918CEA"/>
<path d="M69.0692 42.9522H36.2365C35.4963 42.9522 34.8962 43.5522 34.8962 44.2924C34.8962 45.0326 35.4963 45.6326 36.2365 45.6326H69.0692C69.8094 45.6326 70.4094 45.0326 70.4094 44.2924C70.4094 43.5522 69.8094 42.9522 69.0692 42.9522Z" fill="white"/>
<path d="M62.3681 54.9899C63.8051 53.6207 65.3388 54.9657 65.5033 56.6156C65.6775 58.3525 64.7389 59.7847 63.3793 60.762C60.8441 62.5812 57.1573 62.0732 54.6365 60.4717C53.7801 59.9298 52.7786 59.1121 52.5512 58.0816C52.4157 58.0622 52.4786 58.0961 52.4544 58.1542C51.3126 60.9991 46.7984 62.3441 43.9922 61.7829C41.6021 61.3039 39.241 59.2379 39.5023 56.6156C39.6668 54.9657 41.1715 53.6449 42.6375 54.9657C42.294 54.9657 42.0714 54.8689 41.7666 55.1109C41.2392 55.527 41.5199 56.5527 41.965 56.9446C43.4261 58.2219 45.1631 55.5705 46.0921 54.6996C47.7806 53.1175 50.7223 51.1386 52.4738 53.7803L53.2286 52.9868C55.072 51.5837 57.5443 53.4175 58.9039 54.6996C59.8328 55.5705 61.2747 57.8397 62.7407 57.1381C63.7857 56.6349 63.8825 54.6077 62.3584 54.9899H62.3681Z" fill="white"/>
<path d="M97 60C103.075 60 108 54.8513 108 48.5C108 42.1487 103.075 37 97 37C90.9249 37 86 42.1487 86 48.5C86 54.8513 90.9249 60 97 60Z" fill="#918CEA"/>
<path d="M89.7278 50C89.5003 50 89.2727 49.8918 89.1323 49.6853C88.9 49.3509 88.9823 48.8936 89.3115 48.6576L99.8558 41.1344C100.185 40.8984 100.635 40.982 100.868 41.3163C101.1 41.6507 101.018 42.108 100.689 42.344L90.1442 49.8672C90.0183 49.9557 89.8731 50 89.7278 50Z" fill="#6C60C6"/>
<path d="M92.7278 54C92.5003 54 92.2727 53.9038 92.1323 53.7203C91.9 53.4231 91.9823 53.0166 92.3115 52.8068L102.856 46.1195C103.185 45.9097 103.635 45.984 103.868 46.2812C104.1 46.5784 104.018 46.9849 103.689 47.1947L93.1442 53.882C93.0183 53.9607 92.8731 54 92.7278 54Z" fill="#6C60C6"/>
<path d="M102.29 53C102.053 53 101.816 52.8735 101.683 52.6358L95.104 41.1531C94.9003 40.7939 95.0045 40.3286 95.3408 40.111C95.6771 39.8935 96.1129 40.0048 96.3166 40.364L102.896 51.8467C103.1 52.2058 102.995 52.6712 102.659 52.8887C102.545 52.9646 102.418 53 102.29 53Z" fill="#6C60C6"/>
<path d="M98.2897 55C98.0529 55 97.816 54.8833 97.6834 54.6638L91.104 44.0644C90.9003 43.7329 91.0045 43.3033 91.3408 43.1025C91.6771 42.9017 92.1129 43.0044 92.3166 43.336L98.896 53.9354C99.0997 54.2669 98.9955 54.6965 98.6592 54.8973C98.5455 54.9673 98.4176 55 98.2897 55Z" fill="#6C60C6"/>
</g>
</g>
<defs>
<clipPath id="clip0_27_4719">
<rect width="100" height="100" fill="white" transform="translate(8)"/>
</clipPath>
<clipPath id="clip1_27_4719">
<rect width="100.148" height="77.8" fill="white" transform="translate(8 11)"/>
</clipPath>
</defs>
</svg>
