<svg width="108" height="100" viewBox="0 0 108 100" fill="none" xmlns="http://www.w3.org/2000/svg">
<g clip-path="url(#clip0_27_4854)">
<g clip-path="url(#clip1_27_4854)">
<path d="M98.5813 53.3739C98.5813 75.5672 78.5265 78.2767 53.7931 78.2767C29.0596 78.2767 9 75.5672 9 53.3739C9 31.1806 29.0548 13.1821 53.7882 13.1821C78.5217 13.1821 98.5764 31.1757 98.5764 53.3691L98.5813 53.3739Z" fill="#3CC4C8"/>
<path d="M18.1492 37.5236L19.1991 15.219C19.3491 12.079 22.6294 10.0904 25.484 11.4113L45.9404 20.8992L18.1492 37.5236Z" fill="#3CC4C8"/>
<path d="M88.4062 37.5236L87.3563 15.219C87.2063 12.079 83.926 10.0904 81.0714 11.4113L60.615 20.8992L88.4062 37.5188V37.5236Z" fill="#3CC4C8"/>
<path d="M43.2213 51.5886C45.2521 51.5886 46.8984 49.9423 46.8984 47.9115C46.8984 45.8806 45.2521 44.2343 43.2213 44.2343C41.1905 44.2343 39.5442 45.8806 39.5442 47.9115C39.5442 49.9423 41.1905 51.5886 43.2213 51.5886Z" fill="white"/>
<path d="M56.9621 61.033C56.9621 63.065 55.6945 64.7101 54.1317 64.7101C52.5689 64.7101 51.3013 63.065 51.3013 61.033C51.3013 59.0009 54.1317 57.3558 54.1317 57.3558C54.1317 57.3558 56.9621 59.0009 56.9621 61.033Z" fill="#86DBDE"/>
<path d="M64.5196 51.5886C66.5505 51.5886 68.1968 49.9423 68.1968 47.9115C68.1968 45.8806 66.5505 44.2343 64.5196 44.2343C62.4888 44.2343 60.8425 45.8806 60.8425 47.9115C60.8425 49.9423 62.4888 51.5886 64.5196 51.5886Z" fill="white"/>
<path d="M80.6795 88.8C87.8569 88.8 93.6752 84.6626 93.6752 79.5588C93.6752 74.4551 87.8569 70.3177 80.6795 70.3177C73.5022 70.3177 67.6838 74.4551 67.6838 79.5588C67.6838 84.6626 73.5022 88.8 80.6795 88.8Z" fill="#86DBDE"/>
<path d="M29.4806 88.8C36.6579 88.8 42.4763 84.6626 42.4763 79.5588C42.4763 74.4551 36.6579 70.3177 29.4806 70.3177C22.3032 70.3177 16.4849 74.4551 16.4849 79.5588C16.4849 84.6626 22.3032 88.8 29.4806 88.8Z" fill="#86DBDE"/>
<path d="M53.8222 49.7355L49.7483 54.9319C49.6564 55.048 49.7387 55.2222 49.8887 55.2222H58.0364C58.1864 55.2222 58.2686 55.048 58.1767 54.9319L54.1028 49.7355C54.0302 49.6436 53.8899 49.6436 53.8222 49.7355Z" fill="white"/>
<path d="M73.7415 73.4045H36.9026V83.4488H73.7415V73.4045Z" fill="#86DBDE"/>
<path d="M66.305 66.5099H42.8489V76.5542H66.305V66.5099Z" fill="#86DBDE"/>
<path d="M55.7622 61.7926H52.6028V69.2H55.7622V61.7926Z" fill="#86DBDE"/>
<path d="M50.8756 73.2352C50.8756 75.4463 49.0854 77.2364 46.8743 77.2364C44.6632 77.2364 42.873 75.4463 42.873 73.2352" fill="#3CC4C8"/>
<path d="M58.5734 73.2352C58.5734 75.4463 56.7832 77.2364 54.5721 77.2364C52.361 77.2364 50.5708 75.4463 50.5708 73.2352" fill="#3CC4C8"/>
<path d="M66.2614 73.2352C66.2614 75.4463 64.4712 77.2364 62.2601 77.2364C60.049 77.2364 58.2588 75.4463 58.2588 73.2352" fill="#3CC4C8"/>
</g>
</g>
<defs>
<clipPath id="clip0_27_4854">
<rect width="89.5813" height="77.8" fill="white" transform="translate(9 11)"/>
</clipPath>
<clipPath id="clip1_27_4854">
<rect width="89.5813" height="77.8" fill="white" transform="translate(9 11)"/>
</clipPath>
</defs>
</svg>
