<svg width="108" height="100" viewBox="0 0 108 100" fill="none" xmlns="http://www.w3.org/2000/svg">
<g clip-path="url(#clip0_27_5001)">
<g clip-path="url(#clip1_27_5001)">
<g clip-path="url(#clip2_27_5001)">
<path d="M97.5813 53.3739C97.5813 75.5672 77.5265 78.2767 52.7931 78.2767C28.0596 78.2767 8 75.5672 8 53.3739C8 31.1806 28.0548 13.1821 52.7882 13.1821C77.5217 13.1821 97.5764 31.1757 97.5764 53.3691L97.5813 53.3739Z" fill="#F3BF3B"/>
<path d="M17.1492 37.5236L18.1991 15.219C18.3491 12.079 21.6294 10.0904 24.484 11.4113L44.9404 20.8992L17.1492 37.5236Z" fill="#F3BF3B"/>
<path d="M87.4062 37.5236L86.3563 15.219C86.2063 12.079 82.926 10.0904 80.0714 11.4113L59.615 20.8992L87.4062 37.5188V37.5236Z" fill="#F3BF3B"/>
<path d="M101.39 44.0649L96.2914 41.7306C94.836 41.0643 93.1161 41.7039 92.4498 43.1593L75.4388 80.3146C74.7725 81.7699 75.4121 83.4899 76.8674 84.1562L81.9661 86.4905C83.4214 87.1568 85.1413 86.5172 85.8076 85.0618L102.819 47.9065C103.485 46.4512 102.845 44.7312 101.39 44.0649Z" fill="#FDD77A"/>
<path d="M80.6473 88.8C87.8246 88.8 93.643 84.6626 93.643 79.5588C93.643 74.4551 87.8246 70.3177 80.6473 70.3177C73.47 70.3177 67.6516 74.4551 67.6516 79.5588C67.6516 84.6626 73.47 88.8 80.6473 88.8Z" fill="#FDD77A"/>
<path d="M28.4806 88.8C35.6579 88.8 41.4763 84.6626 41.4763 79.5588C41.4763 74.4551 35.6579 70.3177 28.4806 70.3177C21.3032 70.3177 15.4849 74.4551 15.4849 79.5588C15.4849 84.6626 21.3032 88.8 28.4806 88.8Z" fill="#FDD77A"/>
<path d="M96.8507 59.3928C103.09 59.3928 108.148 54.3347 108.148 48.0953C108.148 41.8559 103.09 36.7979 96.8507 36.7979C90.6113 36.7979 85.5532 41.8559 85.5532 48.0953C85.5532 54.3347 90.6113 59.3928 96.8507 59.3928Z" fill="#FDD77A"/>
<path d="M90.1302 49.8903C89.9028 49.8903 89.6754 49.7839 89.5351 49.5807C89.3028 49.2517 89.3851 48.8017 89.7141 48.5695L100.252 41.1669C100.581 40.9346 101.031 41.0169 101.263 41.3459C101.495 41.6749 101.413 42.1248 101.084 42.3571L90.5463 49.7597C90.4205 49.8468 90.2753 49.8903 90.1302 49.8903Z" fill="#F3BF3B"/>
<path d="M93.2462 54.2303C93.0188 54.2303 92.7914 54.1239 92.6511 53.9206C92.4188 53.5916 92.5011 53.1417 92.8301 52.9094L103.368 45.5068C103.697 45.2746 104.147 45.3568 104.379 45.6858C104.611 46.0149 104.529 46.4648 104.2 46.6971L93.6623 54.0997C93.5365 54.1868 93.3913 54.2303 93.2462 54.2303Z" fill="#F3BF3B"/>
<path d="M102.584 52.4353C102.342 52.4353 102.1 52.3143 101.965 52.0869L95.2444 41.1039C95.0363 40.7604 95.1428 40.3153 95.4863 40.1072C95.8298 39.8992 96.275 40.0056 96.483 40.3492L103.203 51.3321C103.411 51.6756 103.305 52.1208 102.961 52.3288C102.845 52.4014 102.715 52.4353 102.584 52.4353Z" fill="#F3BF3B"/>
<path d="M98.0555 55.2705C97.8136 55.2705 97.5717 55.1496 97.4362 54.9222L90.7158 43.9392C90.5078 43.5957 90.6142 43.1506 90.9577 42.9425C91.3013 42.7345 91.7464 42.8409 91.9544 43.1844L98.6748 54.1674C98.8829 54.5109 98.7765 54.956 98.4329 55.1641C98.3168 55.2367 98.1862 55.2705 98.0555 55.2705Z" fill="#F3BF3B"/>
<path d="M41.215 54.2109C43.2458 54.2109 44.8921 52.5646 44.8921 50.5338C44.8921 48.503 43.2458 46.8567 41.215 46.8567C39.1841 46.8567 37.5378 48.503 37.5378 50.5338C37.5378 52.5646 39.1841 54.2109 41.215 54.2109Z" fill="white"/>
<path d="M62.5182 54.2109C64.549 54.2109 66.1953 52.5646 66.1953 50.5338C66.1953 48.503 64.549 46.8567 62.5182 46.8567C60.4874 46.8567 58.8411 48.503 58.8411 50.5338C58.8411 52.5646 60.4874 54.2109 62.5182 54.2109Z" fill="white"/>
<path d="M51.8205 52.3579L47.7466 57.5542C47.6547 57.6703 47.737 57.8445 47.8869 57.8445H56.0347C56.1846 57.8445 56.2669 57.6703 56.175 57.5542L52.1011 52.3579C52.0285 52.2659 51.8882 52.2659 51.8205 52.3579Z" fill="white"/>
</g>
</g>
</g>
<defs>
<clipPath id="clip0_27_5001">
<rect width="100" height="100" fill="white" transform="translate(8)"/>
</clipPath>
<clipPath id="clip1_27_5001">
<rect width="100.148" height="77.8" fill="white" transform="translate(8 11)"/>
</clipPath>
<clipPath id="clip2_27_5001">
<rect width="100.148" height="77.8" fill="white" transform="translate(8 11)"/>
</clipPath>
</defs>
</svg>
