<svg width="108" height="100" viewBox="0 0 108 100" fill="none" xmlns="http://www.w3.org/2000/svg">
<g clip-path="url(#clip0_27_4818)">
<g clip-path="url(#clip1_27_4818)">
<path d="M98.5583 53.363C98.5583 75.5506 78.5086 78.2594 53.7815 78.2594C29.0545 78.2594 9 75.5506 9 53.363C9 31.1754 29.0496 13.1815 53.7767 13.1815C78.5038 13.1815 98.5534 31.1706 98.5534 53.3582L98.5583 53.363Z" fill="#3CC4C8"/>
<path d="M18.147 37.5168L19.1966 15.2179C19.3466 12.0787 22.6261 10.0906 25.48 11.4112L45.9311 20.8966L18.147 37.5168Z" fill="#3CC4C8"/>
<path d="M88.3859 37.5168L87.3363 15.2179C87.1863 12.0787 83.9068 10.0906 81.0529 11.4112L60.6018 20.8966L88.3859 37.512V37.5168Z" fill="#3CC4C8"/>
<path d="M42.4436 51.7764C44.5834 51.7764 46.3181 50.0418 46.3181 47.902C46.3181 45.7621 44.5834 44.0275 42.4436 44.0275C40.3038 44.0275 38.5691 45.7621 38.5691 47.902C38.5691 50.0418 40.3038 51.7764 42.4436 51.7764Z" fill="white"/>
<path d="M65.405 51.7764C67.5448 51.7764 69.2795 50.0418 69.2795 47.902C69.2795 45.7621 67.5448 44.0275 65.405 44.0275C63.2652 44.0275 61.5305 45.7621 61.5305 47.902C61.5305 50.0418 63.2652 51.7764 65.405 51.7764Z" fill="white"/>
<path d="M98.0728 39.9853L107.66 44.3749L90.1947 82.5234C89.5282 83.9792 87.8055 84.6162 86.3541 83.9517L82.0397 81.9764C80.5839 81.3099 79.9469 79.5872 80.6114 78.1358L98.0771 39.9873L98.0728 39.9853Z" fill="#86DBDE"/>
<path d="M81.6286 88.78C88.8041 88.78 94.6209 84.6436 94.6209 79.5412C94.6209 74.4387 88.8041 70.3024 81.6286 70.3024C74.4531 70.3024 68.6362 74.4387 68.6362 79.5412C68.6362 84.6436 74.4531 88.78 81.6286 88.78Z" fill="#86DBDE"/>
<path d="M29.4753 88.78C36.6507 88.78 42.4676 84.6436 42.4676 79.5412C42.4676 74.4387 36.6507 70.3024 29.4753 70.3024C22.2998 70.3024 16.4829 74.4387 16.4829 79.5412C16.4829 84.6436 22.2998 88.78 29.4753 88.78Z" fill="#86DBDE"/>
<path d="M53.8106 49.2418L49.7378 54.4369C49.6459 54.5529 49.7282 54.7271 49.8781 54.7271H58.0237C58.1737 54.7271 58.2559 54.5529 58.164 54.4369L54.0912 49.2418C54.0186 49.1499 53.8784 49.1499 53.8106 49.2418Z" fill="white"/>
<path d="M42.3565 55.9799C37.9886 55.9799 34.4333 52.4246 34.4333 48.0567C34.4333 43.6889 37.9886 40.1336 42.3565 40.1336C46.7243 40.1336 50.2796 43.6889 50.2796 48.0567C50.2796 52.4246 46.7243 55.9799 42.3565 55.9799ZM42.3565 41.4106C38.69 41.4106 35.7103 44.3903 35.7103 48.0567C35.7103 51.7232 38.69 54.7029 42.3565 54.7029C46.023 54.7029 49.0026 51.7232 49.0026 48.0567C49.0026 44.3903 46.023 41.4106 42.3565 41.4106Z" fill="white"/>
<path d="M65.5066 55.9799C61.1387 55.9799 57.5835 52.4246 57.5835 48.0567C57.5835 43.6889 61.1387 40.1336 65.5066 40.1336C69.8745 40.1336 73.4297 43.6889 73.4297 48.0567C73.4297 52.4246 69.8745 55.9799 65.5066 55.9799ZM65.5066 41.4106C61.8401 41.4106 58.8605 44.3903 58.8605 48.0567C58.8605 51.7232 61.8401 54.7029 65.5066 54.7029C69.1731 54.7029 72.1527 51.7232 72.1527 48.0567C72.1527 44.3903 69.1731 41.4106 65.5066 41.4106Z" fill="white"/>
<path d="M58.7734 44.9755H48.7559V46.1848H58.7734V44.9755Z" fill="white"/>
<path d="M69.9181 38.7406H37.0938C36.3538 38.7406 35.7539 39.3404 35.7539 40.0804C35.7539 40.8204 36.3538 41.4203 37.0938 41.4203H69.9181C70.6581 41.4203 71.258 40.8204 71.258 40.0804C71.258 39.3404 70.6581 38.7406 69.9181 38.7406Z" fill="white"/>
<path d="M96.1983 59.0851L95.7207 60.1006L99.6294 61.9391L100.107 60.9236L96.1983 59.0851Z" fill="#3CC4C8"/>
<path d="M98.2245 54.6111L97.7468 55.6266L101.656 57.465L102.133 56.4495L98.2245 54.6111Z" fill="#3CC4C8"/>
<path d="M92.13 67.9482L91.6523 68.9637L95.5611 70.8022L96.0387 69.7867L92.13 67.9482Z" fill="#3CC4C8"/>
<path d="M94.1561 63.4742L93.6785 64.4897L97.5872 66.3282L98.0648 65.3127L94.1561 63.4742Z" fill="#3CC4C8"/>
<path d="M100.438 49.855L99.96 50.8705L103.869 52.709L104.346 51.6935L100.438 49.855Z" fill="#3CC4C8"/>
</g>
</g>
<defs>
<clipPath id="clip0_27_4818">
<rect width="100" height="77.7778" fill="white" transform="translate(8 11)"/>
</clipPath>
<clipPath id="clip1_27_4818">
<rect width="98.6616" height="77.78" fill="white" transform="translate(9 11)"/>
</clipPath>
</defs>
</svg>
