<svg width="108" height="100" viewBox="0 0 108 100" fill="none" xmlns="http://www.w3.org/2000/svg">
<g clip-path="url(#clip0_27_4951)">
<g clip-path="url(#clip1_27_4951)">
<path d="M98.5813 53.3739C98.5813 75.5672 78.5265 78.2767 53.7931 78.2767C29.0596 78.2767 9 75.5672 9 53.3739C9 31.1806 29.0548 13.1821 53.7882 13.1821C78.5217 13.1821 98.5764 31.1757 98.5764 53.3691L98.5813 53.3739Z" fill="#F3BF3B"/>
<path d="M18.1492 37.5236L19.1991 15.219C19.3491 12.079 22.6294 10.0904 25.484 11.4113L45.9404 20.8992L18.1492 37.5236Z" fill="#F3BF3B"/>
<path d="M88.4062 37.5236L87.3563 15.219C87.2063 12.079 83.926 10.0904 81.0714 11.4113L60.615 20.8992L88.4062 37.5188V37.5236Z" fill="#F3BF3B"/>
<path d="M42.452 55.0722C46.4067 55.0722 49.6127 51.8662 49.6127 47.9115C49.6127 43.9567 46.4067 40.7508 42.452 40.7508C38.4972 40.7508 35.2913 43.9567 35.2913 47.9115C35.2913 51.8662 38.4972 55.0722 42.452 55.0722Z" fill="white"/>
<path d="M65.4195 55.0722C69.3742 55.0722 72.5802 51.8662 72.5802 47.9115C72.5802 43.9567 69.3742 40.7508 65.4195 40.7508C61.4647 40.7508 58.2588 43.9567 58.2588 47.9115C58.2588 51.8662 61.4647 55.0722 65.4195 55.0722Z" fill="white"/>
<path d="M81.6473 88.8C88.8246 88.8 94.643 84.6626 94.643 79.5588C94.643 74.4551 88.8246 70.3177 81.6473 70.3177C74.47 70.3177 68.6516 74.4551 68.6516 79.5588C68.6516 84.6626 74.47 88.8 81.6473 88.8Z" fill="#FDD77A"/>
<path d="M29.4806 88.8C36.6579 88.8 42.4763 84.6626 42.4763 79.5588C42.4763 74.4551 36.6579 70.3177 29.4806 70.3177C22.3032 70.3177 16.4849 74.4551 16.4849 79.5588C16.4849 84.6626 22.3032 88.8 29.4806 88.8Z" fill="#FDD77A"/>
<path d="M53.8222 49.2517L49.7483 54.448C49.6564 54.5641 49.7387 54.7383 49.8887 54.7383H58.0364C58.1864 54.7383 58.2686 54.5641 58.1767 54.448L54.1028 49.2517C54.0302 49.1597 53.8899 49.1597 53.8222 49.2517Z" fill="white"/>
<path d="M42.3651 55.9914C37.9961 55.9914 34.4399 52.4353 34.4399 48.0663C34.4399 43.6973 37.9961 40.1411 42.3651 40.1411C46.7341 40.1411 50.2902 43.6973 50.2902 48.0663C50.2902 52.4353 46.7341 55.9914 42.3651 55.9914ZM42.3651 41.4185C38.6977 41.4185 35.7173 44.3989 35.7173 48.0663C35.7173 51.7337 38.6977 54.7141 42.3651 54.7141C46.0325 54.7141 49.0129 51.7337 49.0129 48.0663C49.0129 44.3989 46.0325 41.4185 42.3651 41.4185Z" fill="white"/>
<path d="M65.5211 55.9914C61.1521 55.9914 57.5959 52.4353 57.5959 48.0663C57.5959 43.6973 61.1521 40.1411 65.5211 40.1411C69.8901 40.1411 73.4462 43.6973 73.4462 48.0663C73.4462 52.4353 69.8901 55.9914 65.5211 55.9914ZM65.5211 41.4185C61.8537 41.4185 58.8733 44.3989 58.8733 48.0663C58.8733 51.7337 61.8537 54.7141 65.5211 54.7141C69.1885 54.7141 72.1689 51.7337 72.1689 48.0663C72.1689 44.3989 69.1885 41.4185 65.5211 41.4185Z" fill="white"/>
<path d="M58.7862 44.9843H48.7661V46.1939H58.7862V44.9843Z" fill="white"/>
<path d="M69.9337 38.7477H37.101C36.3608 38.7477 35.7607 39.3477 35.7607 40.0879C35.7607 40.8281 36.3608 41.4281 37.101 41.4281H69.9337C70.6739 41.4281 71.2739 40.8281 71.2739 40.0879C71.2739 39.3477 70.6739 38.7477 69.9337 38.7477Z" fill="white"/>
<path d="M81.7929 77.1696C83.8571 75.9779 83.7813 71.9821 81.6235 68.2448C79.4658 64.5074 76.0432 62.4439 73.979 63.6356C71.9148 64.8274 71.9906 68.8232 74.1484 72.5605C76.3061 76.2978 79.7287 78.3614 81.7929 77.1696Z" fill="#FDD77A"/>
<path d="M88.6536 71.4851C90.203 67.4574 89.6556 63.4985 87.4309 62.6428C85.2063 61.787 82.1469 64.3585 80.5976 68.3863C79.0482 72.414 79.5956 76.3729 81.8203 77.2286C84.0449 78.0844 87.1043 75.5129 88.6536 71.4851Z" fill="#FDD77A"/>
</g>
</g>
<defs>
<clipPath id="clip0_27_4951">
<rect width="89.5813" height="77.8" fill="white" transform="translate(9 11)"/>
</clipPath>
<clipPath id="clip1_27_4951">
<rect width="89.5813" height="77.8" fill="white" transform="translate(9 11)"/>
</clipPath>
</defs>
</svg>
