<svg width="108" height="100" viewBox="0 0 108 100" fill="none" xmlns="http://www.w3.org/2000/svg">
<g clip-path="url(#clip0_27_5066)">
<g clip-path="url(#clip1_27_5066)">
<path d="M98.5813 53.3739C98.5813 75.5672 78.5265 78.2767 53.7931 78.2767C29.0596 78.2767 9 75.5672 9 53.3739C9 31.1806 29.0548 13.1821 53.7882 13.1821C78.5217 13.1821 98.5764 31.1757 98.5764 53.3691L98.5813 53.3739Z" fill="#3FAD76"/>
<path d="M18.1492 37.5236L19.1991 15.219C19.3491 12.079 22.6294 10.0904 25.484 11.4113L45.9404 20.8992L18.1492 37.5236Z" fill="#3FAD76"/>
<path d="M88.4062 37.5236L87.3563 15.219C87.2063 12.079 83.926 10.0904 81.0714 11.4113L60.615 20.8992L88.4062 37.5188V37.5236Z" fill="#3FAD76"/>
<path d="M83.9277 55.0265L89.5865 56.3038L83.5684 82.9646C83.2158 84.5268 81.6607 85.5051 80.1033 85.1535C78.5411 84.8009 77.5628 83.2458 77.9144 81.6884L83.9325 55.0276L83.9277 55.0265Z" fill="#96E2BC"/>
<path d="M80.7618 88.8C87.9391 88.8 93.7575 84.6626 93.7575 79.5589C93.7575 74.4551 87.9391 70.3177 80.7618 70.3177C73.5845 70.3177 67.7661 74.4551 67.7661 79.5589C67.7661 84.6626 73.5845 88.8 80.7618 88.8Z" fill="#96E2BC"/>
<path d="M29.4806 88.8C36.6579 88.8 42.4763 84.6626 42.4763 79.5589C42.4763 74.4551 36.6579 70.3177 29.4806 70.3177C22.3032 70.3177 16.4849 74.4551 16.4849 79.5589C16.4849 84.6626 22.3032 88.8 29.4806 88.8Z" fill="#96E2BC"/>
<path d="M43.3715 52.9675C45.4023 52.9675 47.0486 51.3212 47.0486 49.2904C47.0486 47.2596 45.4023 45.6133 43.3715 45.6133C41.3406 45.6133 39.6943 47.2596 39.6943 49.2904C39.6943 51.3212 41.3406 52.9675 43.3715 52.9675Z" fill="white"/>
<path d="M64.6695 52.9675C66.7004 52.9675 68.3467 51.3212 68.3467 49.2904C68.3467 47.2596 66.7004 45.6133 64.6695 45.6133C62.6387 45.6133 60.9924 47.2596 60.9924 49.2904C60.9924 51.3212 62.6387 52.9675 64.6695 52.9675Z" fill="white"/>
<path d="M53.9721 51.1096L49.8982 56.3059C49.8063 56.4221 49.8886 56.5962 50.0386 56.5962H58.1863C58.3363 56.5962 58.4185 56.4221 58.3266 56.3059L54.2527 51.1096C54.1802 51.0177 54.0398 51.0177 53.9721 51.1096Z" fill="white"/>
<path d="M86.7749 54.0668C88.6713 52.9323 88.7996 49.6573 87.0615 46.752C85.3233 43.8466 82.377 42.4111 80.4806 43.5456C78.5842 44.6801 78.4559 47.955 80.194 50.8604C81.9322 53.7657 84.8785 55.2013 86.7749 54.0668Z" fill="#96E2BC"/>
<path d="M93.4678 52.553C96.0334 50.3439 96.9443 47.1956 95.5024 45.521C94.0605 43.8464 90.8118 44.2796 88.2462 46.4887C85.6806 48.6978 84.7697 51.8461 86.2116 53.5207C87.6536 55.1953 90.9023 54.7621 93.4678 52.553Z" fill="#96E2BC"/>
<path d="M93.2138 61.1363C95.1766 60.121 95.5069 56.8602 93.9514 53.8531C92.396 50.846 89.5439 49.2312 87.5811 50.2465C85.6183 51.2617 85.288 54.5225 86.8434 57.5297C88.3989 60.5368 91.251 62.1515 93.2138 61.1363Z" fill="#96E2BC"/>
<path d="M85.6448 57.7309C88.3419 55.6844 89.4454 52.5983 88.1097 50.8379C86.7739 49.0774 83.5046 49.3093 80.8076 51.3557C78.1105 53.4022 77.0069 56.4883 78.3427 58.2487C79.6784 60.0092 82.9477 59.7773 85.6448 57.7309Z" fill="#96E2BC"/>
<path d="M37.7685 21.533C39.5134 21.533 40.928 20.1185 40.928 18.3736C40.928 16.6287 39.5134 15.2142 37.7685 15.2142C36.0236 15.2142 34.6091 16.6287 34.6091 18.3736C34.6091 20.1185 36.0236 21.533 37.7685 21.533Z" fill="#96E2BC"/>
<path d="M42.2537 19.4864C43.9986 19.4864 45.4131 18.0719 45.4131 16.327C45.4131 14.5821 43.9986 13.1676 42.2537 13.1676C40.5088 13.1676 39.0942 14.5821 39.0942 16.327C39.0942 18.0719 40.5088 19.4864 42.2537 19.4864Z" fill="#96E2BC"/>
<path d="M47.3242 18.2188C49.0691 18.2188 50.4836 16.8042 50.4836 15.0593C50.4836 13.3145 49.0691 11.8999 47.3242 11.8999C45.5793 11.8999 44.1648 13.3145 44.1648 15.0593C44.1648 16.8042 45.5793 18.2188 47.3242 18.2188Z" fill="#96E2BC"/>
<path d="M52.2981 17.8269C54.043 17.8269 55.4575 16.4123 55.4575 14.6674C55.4575 12.9225 54.043 11.508 52.2981 11.508C50.5532 11.508 49.1387 12.9225 49.1387 14.6674C49.1387 16.4123 50.5532 17.8269 52.2981 17.8269Z" fill="#96E2BC"/>
<path d="M57.5669 17.9236C59.3118 17.9236 60.7263 16.5091 60.7263 14.7642C60.7263 13.0193 59.3118 11.6048 57.5669 11.6048C55.822 11.6048 54.4075 13.0193 54.4075 14.7642C54.4075 16.5091 55.822 17.9236 57.5669 17.9236Z" fill="#96E2BC"/>
<path d="M62.5408 18.7074C64.2857 18.7074 65.7002 17.2929 65.7002 15.548C65.7002 13.8031 64.2857 12.3886 62.5408 12.3886C60.7959 12.3886 59.3813 13.8031 59.3813 15.548C59.3813 17.2929 60.7959 18.7074 62.5408 18.7074Z" fill="#96E2BC"/>
<path d="M67.4856 20.2992C69.2305 20.2992 70.645 18.8847 70.645 17.1398C70.645 15.3949 69.2305 13.9804 67.4856 13.9804C65.7407 13.9804 64.3262 15.3949 64.3262 17.1398C64.3262 18.8847 65.7407 20.2992 67.4856 20.2992Z" fill="#96E2BC"/>
</g>
</g>
<defs>
<clipPath id="clip0_27_5066">
<rect width="89.5813" height="77.8" fill="white" transform="translate(9 11)"/>
</clipPath>
<clipPath id="clip1_27_5066">
<rect width="89.5813" height="77.8" fill="white" transform="translate(9 11)"/>
</clipPath>
</defs>
</svg>
