<svg width="108" height="100" viewBox="0 0 108 100" fill="none" xmlns="http://www.w3.org/2000/svg">
<g clip-path="url(#clip0_27_910)">
<path d="M98.8961 53.3618C98.8961 75.5488 78.7708 78.2575 53.9505 78.2575C29.1301 78.2575 9 75.5488 9 53.3618C9 31.1748 29.1253 13.1815 53.9456 13.1815C78.766 13.1815 98.8912 31.17 98.8912 53.357L98.8961 53.3618Z" fill="#6C60C6"/>
<path d="M18.1814 37.516L19.235 15.2178C19.3855 12.0786 22.6774 10.0907 25.542 11.4111L46.0703 20.8964L18.1814 37.516Z" fill="#6C60C6"/>
<path d="M88.6853 37.516L87.6317 15.2178C87.4812 12.0786 84.1893 10.0907 81.3246 11.4111L60.7964 20.8964L88.6853 37.5112V37.516Z" fill="#6C60C6"/>
<path d="M42.5695 51.7753C44.7174 51.7753 46.4586 50.0407 46.4586 47.9009C46.4586 45.7612 44.7174 44.0266 42.5695 44.0266C40.4216 44.0266 38.6804 45.7612 38.6804 47.9009C38.6804 50.0407 40.4216 51.7753 42.5695 51.7753Z" fill="white"/>
<path d="M65.1323 51.7753C67.2802 51.7753 69.0214 50.0407 69.0214 47.9009C69.0214 45.7612 67.2802 44.0266 65.1323 44.0266C62.9844 44.0266 61.2432 45.7612 61.2432 47.9009C61.2432 50.0407 62.9844 51.7753 65.1323 51.7753Z" fill="white"/>
<path d="M78.3685 48.433L90.332 67.9403C90.4097 68.0612 90.5893 68.0515 90.6476 67.921L101.324 44.6844C101.383 44.5538 101.276 44.4087 101.13 44.4328L78.4899 48.1573C78.3636 48.1766 78.3005 48.3217 78.3636 48.4281L78.3685 48.433Z" fill="#918CEA"/>
<path d="M104.302 42.3352L104.297 42.3332C102.837 41.6671 101.111 42.3065 100.442 43.7615L83.3713 80.9062C82.7027 82.3611 83.3446 84.0805 84.805 84.7466L84.8094 84.7486C86.2699 85.4148 87.9958 84.7753 88.6645 83.3204L105.735 46.1757C106.404 44.7208 105.762 43.0013 104.302 42.3352Z" fill="#6C60C6"/>
<path d="M81.9024 88.7778C89.105 88.7778 94.9438 84.6415 94.9438 79.5392C94.9438 74.437 89.105 70.3007 81.9024 70.3007C74.6999 70.3007 68.8611 74.437 68.8611 79.5392C68.8611 84.6415 74.6999 88.7778 81.9024 88.7778Z" fill="#918CEA"/>
<path d="M29.5526 88.7778C36.7551 88.7778 42.594 84.6415 42.594 79.5392C42.594 74.437 36.7551 70.3007 29.5526 70.3007C22.35 70.3007 16.5112 74.437 16.5112 79.5392C16.5112 84.6415 22.35 88.7778 29.5526 88.7778Z" fill="#918CEA"/>
<path d="M70.2838 42.9431H37.3356C36.5929 42.9431 35.9907 43.5429 35.9907 44.2829C35.9907 45.0228 36.5929 45.6227 37.3356 45.6227H70.2838C71.0266 45.6227 71.6287 45.0228 71.6287 44.2829C71.6287 43.5429 71.0266 42.9431 70.2838 42.9431Z" fill="white"/>
<path d="M63.5591 54.9773C65.0012 53.6085 66.5403 54.9531 66.7054 56.6025C66.8802 58.339 65.9382 59.7707 64.5739 60.7478C62.0297 62.5665 58.33 62.0586 55.8004 60.4576C54.941 59.9158 53.9359 59.0984 53.7077 58.0681C53.5718 58.0488 53.6349 58.0826 53.6106 58.1407C52.4648 60.9848 47.9348 62.3295 45.1187 61.7684C42.7201 61.2895 40.3508 59.2242 40.6129 56.6025C40.778 54.9531 42.288 53.6327 43.7592 54.9531C43.4145 54.9531 43.1911 54.8564 42.8852 55.0983C42.356 55.5142 42.6376 56.5397 43.0843 56.9314C44.5506 58.2084 46.2937 55.5578 47.2259 54.6871C48.9204 53.1054 51.8724 51.1271 53.63 53.7681L54.3875 52.9748C56.2373 51.5721 58.7184 53.4053 60.0827 54.6871C61.015 55.5578 62.4618 57.8263 63.933 57.1249C64.9818 56.6219 65.0789 54.5952 63.5494 54.9773H63.5591Z" fill="white"/>
</g>
<defs>
<clipPath id="clip0_27_910">
<rect width="100" height="77.7778" fill="white" transform="translate(8 11)"/>
</clipPath>
</defs>
</svg>
