<svg width="108" height="100" viewBox="0 0 108 100" fill="none" xmlns="http://www.w3.org/2000/svg">
<g clip-path="url(#clip0_27_4608)">
<path d="M98.5813 53.3739C98.5813 75.5672 78.5265 78.2767 53.7931 78.2767C29.0596 78.2767 9 75.5672 9 53.3739C9 31.1806 29.0548 13.1821 53.7882 13.1821C78.5217 13.1821 98.5764 31.1758 98.5764 53.3691L98.5813 53.3739Z" fill="#6C60C6"/>
<path d="M18.1492 37.5236L19.1991 15.219C19.3491 12.0789 22.6294 10.0904 25.484 11.4112L45.9404 20.8992L18.1492 37.5236Z" fill="#6C60C6"/>
<path d="M88.4062 37.5236L87.3563 15.219C87.2063 12.0789 83.926 10.0904 81.0714 11.4112L60.615 20.8992L88.4062 37.5188V37.5236Z" fill="#6C60C6"/>
<path d="M42.4521 51.7869C44.5925 51.7869 46.3276 50.0518 46.3276 47.9115C46.3276 45.7711 44.5925 44.036 42.4521 44.036C40.3118 44.036 38.5767 45.7711 38.5767 47.9115C38.5767 50.0518 40.3118 51.7869 42.4521 51.7869Z" fill="white"/>
<path d="M65.4194 51.7869C67.5598 51.7869 69.2949 50.0518 69.2949 47.9115C69.2949 45.7711 67.5598 44.036 65.4194 44.036C63.2791 44.036 61.5439 45.7711 61.5439 47.9115C61.5439 50.0518 63.2791 51.7869 65.4194 51.7869Z" fill="white"/>
<path d="M81.6473 88.8C88.8246 88.8 94.643 84.6626 94.643 79.5588C94.643 74.4551 88.8246 70.3177 81.6473 70.3177C74.47 70.3177 68.6516 74.4551 68.6516 79.5588C68.6516 84.6626 74.47 88.8 81.6473 88.8Z" fill="#918CEA"/>
<path d="M29.4806 88.8C36.6579 88.8 42.4763 84.6626 42.4763 79.5588C42.4763 74.4551 36.6579 70.3177 29.4806 70.3177C22.3032 70.3177 16.4849 74.4551 16.4849 79.5588C16.4849 84.6626 22.3032 88.8 29.4806 88.8Z" fill="#918CEA"/>
<path d="M53.8222 49.2517L49.7483 54.448C49.6564 54.5641 49.7387 54.7383 49.8887 54.7383H58.0364C58.1864 54.7383 58.2686 54.5641 58.1767 54.448L54.1028 49.2517C54.0302 49.1597 53.8899 49.1597 53.8222 49.2517Z" fill="white"/>
<path d="M42.3651 55.9914C37.9961 55.9914 34.4399 52.4353 34.4399 48.0663C34.4399 43.6973 37.9961 40.1411 42.3651 40.1411C46.7341 40.1411 50.2902 43.6973 50.2902 48.0663C50.2902 52.4353 46.7341 55.9914 42.3651 55.9914ZM42.3651 41.4184C38.6977 41.4184 35.7173 44.3988 35.7173 48.0663C35.7173 51.7337 38.6977 54.7141 42.3651 54.7141C46.0325 54.7141 49.0129 51.7337 49.0129 48.0663C49.0129 44.3988 46.0325 41.4184 42.3651 41.4184Z" fill="white"/>
<path d="M65.5211 55.9914C61.1521 55.9914 57.5959 52.4353 57.5959 48.0663C57.5959 43.6973 61.1521 40.1411 65.5211 40.1411C69.8901 40.1411 73.4462 43.6973 73.4462 48.0663C73.4462 52.4353 69.8901 55.9914 65.5211 55.9914ZM65.5211 41.4184C61.8537 41.4184 58.8733 44.3988 58.8733 48.0663C58.8733 51.7337 61.8537 54.7141 65.5211 54.7141C69.1885 54.7141 72.1689 51.7337 72.1689 48.0663C72.1689 44.3988 69.1885 41.4184 65.5211 41.4184Z" fill="white"/>
<path d="M58.7862 44.9843H48.7661V46.1939H58.7862V44.9843Z" fill="white"/>
<path d="M92.5092 61.0039L91.0916 57.7187C90.9561 57.4091 90.9077 57.0752 90.9368 56.7414L92.5286 40.6153C92.635 39.5267 91.8415 38.559 90.7529 38.4526L86.1033 37.9929C85.0147 37.8865 84.047 38.68 83.9406 39.7686L82.4117 55.2608C82.3729 55.6624 82.2084 56.0447 81.9472 56.3543L77.5733 61.4732L72.3335 67.6034C71.3174 68.7936 72.0141 70.6322 73.5624 70.8499L94.7784 73.8448C96.3073 74.0625 97.4878 72.5191 96.8734 71.1015L92.514 61.0136L92.5092 61.0039Z" fill="#918CEA"/>
<path d="M78.7539 68.6146C79.8682 68.6146 80.7715 67.7113 80.7715 66.597C80.7715 65.4827 79.8682 64.5794 78.7539 64.5794C77.6396 64.5794 76.7363 65.4827 76.7363 66.597C76.7363 67.7113 77.6396 68.6146 78.7539 68.6146Z" fill="#6C60C6"/>
<path d="M82.1503 63.9021C82.8023 63.9021 83.3308 63.3735 83.3308 62.7215C83.3308 62.0695 82.8023 61.541 82.1503 61.541C81.4983 61.541 80.9697 62.0695 80.9697 62.7215C80.9697 63.3735 81.4983 63.9021 82.1503 63.9021Z" fill="#6C60C6"/>
<path d="M83.7132 68.063C84.4561 68.063 85.0583 67.4608 85.0583 66.718C85.0583 65.9751 84.4561 65.3729 83.7132 65.3729C82.9704 65.3729 82.3682 65.9751 82.3682 66.718C82.3682 67.4608 82.9704 68.063 83.7132 68.063Z" fill="#6C60C6"/>
</g>
<defs>
<clipPath id="clip0_27_4608">
<rect width="89.5813" height="77.8" fill="white" transform="translate(9 11)"/>
</clipPath>
</defs>
</svg>
