<svg width="108" height="100" viewBox="0 0 108 100" fill="none" xmlns="http://www.w3.org/2000/svg">
<g clip-path="url(#clip0_27_911)">
<path d="M98.8961 53.3618C98.8961 75.5488 78.7708 78.2575 53.9505 78.2575C29.1301 78.2575 9 75.5488 9 53.3618C9 31.1748 29.1253 13.1815 53.9456 13.1815C78.766 13.1815 98.8912 31.17 98.8912 53.357L98.8961 53.3618Z" fill="#3CC4C8"/>
<path d="M18.1814 37.516L19.235 15.2178C19.3855 12.0786 22.6774 10.0907 25.542 11.4111L46.0703 20.8964L18.1814 37.516Z" fill="#3CC4C8"/>
<path d="M88.6853 37.516L87.6317 15.2178C87.4812 12.0786 84.1893 10.0907 81.3246 11.4111L60.7964 20.8964L88.6853 37.5112V37.516Z" fill="#3CC4C8"/>
<path d="M81.9024 88.7778C89.105 88.7778 94.9438 84.6415 94.9438 79.5392C94.9438 74.437 89.105 70.3007 81.9024 70.3007C74.6999 70.3007 68.8611 74.437 68.8611 79.5392C68.8611 84.6415 74.6999 88.7778 81.9024 88.7778Z" fill="#86DBDE"/>
<path d="M105.227 37.5957L99.6968 41.1632L106 44.0411L105.227 37.5957Z" fill="#3CC4C8"/>
<path d="M99.6946 41.1671L105.989 44.0396L88.6415 81.8056C87.9796 83.2467 86.2685 83.8773 84.8269 83.2195L83.7698 82.7371C82.3239 82.0773 81.6912 80.3719 82.3512 78.9351L99.6989 41.1691L99.6946 41.1671Z" fill="#86DBDE"/>
<path d="M29.5526 88.7778C36.7551 88.7778 42.594 84.6415 42.594 79.5392C42.594 74.437 36.7551 70.3007 29.5526 70.3007C22.35 70.3007 16.5112 74.437 16.5112 79.5392C16.5112 84.6415 22.35 88.7778 29.5526 88.7778Z" fill="#86DBDE"/>
<path d="M41.2175 51.3676C43.3428 51.3676 45.0658 49.6503 45.0658 47.5319C45.0658 45.4136 43.3428 43.6963 41.2175 43.6963C39.0921 43.6963 37.3691 45.4136 37.3691 47.5319C37.3691 49.6503 39.0921 51.3676 41.2175 51.3676Z" fill="white"/>
<path d="M64.0241 51.3676C66.1495 51.3676 67.8724 49.6503 67.8724 47.5319C67.8724 45.4136 66.1495 43.6963 64.0241 43.6963C61.8987 43.6963 60.1758 45.4136 60.1758 47.5319C60.1758 49.6503 61.8987 51.3676 64.0241 51.3676Z" fill="white"/>
<path d="M52.508 48.8583L48.4627 54.0012C48.3714 54.1161 48.4531 54.2885 48.602 54.2885H56.6926C56.8415 54.2885 56.9232 54.1161 56.8319 54.0012L52.7866 48.8583C52.7146 48.7673 52.5752 48.7673 52.508 48.8583Z" fill="white"/>
<path d="M41.1311 55.5287C36.7927 55.5287 33.2615 52.0092 33.2615 47.6851C33.2615 43.361 36.7927 39.8414 41.1311 39.8414C45.4694 39.8414 49.0007 43.361 49.0007 47.6851C49.0007 52.0092 45.4694 55.5287 41.1311 55.5287ZM41.1311 41.1056C37.4893 41.1056 34.5298 44.0554 34.5298 47.6851C34.5298 51.3148 37.4893 54.2646 41.1311 54.2646C44.7728 54.2646 47.7323 51.3148 47.7323 47.6851C47.7323 44.0554 44.7728 41.1056 41.1311 41.1056Z" fill="white"/>
<path d="M64.125 55.5287C59.7866 55.5287 56.2554 52.0092 56.2554 47.6851C56.2554 43.361 59.7866 39.8414 64.125 39.8414C68.4633 39.8414 71.9946 43.361 71.9946 47.6851C71.9946 52.0092 68.4633 55.5287 64.125 55.5287ZM64.125 41.1056C60.4832 41.1056 57.5237 44.0554 57.5237 47.6851C57.5237 51.3148 60.4832 54.2646 64.125 54.2646C67.7667 54.2646 70.7262 51.3148 70.7262 47.6851C70.7262 44.0554 67.7667 41.1056 64.125 41.1056Z" fill="white"/>
<path d="M57.4372 44.6348H47.4873V45.8319H57.4372V44.6348Z" fill="white"/>
</g>
<defs>
<clipPath id="clip0_27_911">
<rect width="100" height="77.7778" fill="white" transform="translate(8 11)"/>
</clipPath>
</defs>
</svg>
