<svg width="108" height="100" viewBox="0 0 108 100" fill="none" xmlns="http://www.w3.org/2000/svg">
<g clip-path="url(#clip0_27_4889)">
<g clip-path="url(#clip1_27_4889)">
<path d="M98.5813 53.3739C98.5813 75.5672 78.5265 78.2767 53.7931 78.2767C29.0596 78.2767 9 75.5672 9 53.3739C9 31.1806 29.0548 13.1821 53.7882 13.1821C78.5217 13.1821 98.5764 31.1757 98.5764 53.3691L98.5813 53.3739Z" fill="#F3BF3B"/>
<path d="M18.1492 37.5236L19.1991 15.219C19.3491 12.079 22.6294 10.0904 25.484 11.4113L45.9404 20.8992L18.1492 37.5236Z" fill="#F3BF3B"/>
<path d="M88.4062 37.5236L87.3563 15.219C87.2063 12.079 83.926 10.0904 81.0714 11.4113L60.615 20.8992L88.4062 37.5188V37.5236Z" fill="#F3BF3B"/>
<path d="M42.452 55.2028C46.4789 55.2028 49.7433 51.9383 49.7433 47.9114C49.7433 43.8846 46.4789 40.6201 42.452 40.6201C38.4251 40.6201 35.1606 43.8846 35.1606 47.9114C35.1606 51.9383 38.4251 55.2028 42.452 55.2028Z" fill="white"/>
<path d="M65.4195 55.2028C69.4464 55.2028 72.7108 51.9383 72.7108 47.9114C72.7108 43.8846 69.4464 40.6201 65.4195 40.6201C61.3926 40.6201 58.1282 43.8846 58.1282 47.9114C58.1282 51.9383 61.3926 55.2028 65.4195 55.2028Z" fill="white"/>
<path d="M91.2378 42.5993L100.42 45.9474L87.1749 82.2709C86.6262 83.7755 84.9593 84.5478 83.4593 84.0008L79.7274 82.6401C78.2228 82.0914 77.4504 80.4245 77.9974 78.9245L91.2423 42.601L91.2378 42.5993Z" fill="#FDD77A"/>
<path d="M81.6473 88.8C88.8246 88.8 94.643 84.6626 94.643 79.5588C94.643 74.4551 88.8246 70.3177 81.6473 70.3177C74.47 70.3177 68.6516 74.4551 68.6516 79.5588C68.6516 84.6626 74.47 88.8 81.6473 88.8Z" fill="#FDD77A"/>
<path d="M29.4806 88.8C36.6579 88.8 42.4763 84.6626 42.4763 79.5588C42.4763 74.4551 36.6579 70.3177 29.4806 70.3177C22.3032 70.3177 16.4849 74.4551 16.4849 79.5588C16.4849 84.6626 22.3032 88.8 29.4806 88.8Z" fill="#FDD77A"/>
<path d="M42.3651 55.9914C37.9961 55.9914 34.4399 52.4353 34.4399 48.0663C34.4399 43.6973 37.9961 40.1411 42.3651 40.1411C46.7341 40.1411 50.2902 43.6973 50.2902 48.0663C50.2902 52.4353 46.7341 55.9914 42.3651 55.9914ZM42.3651 41.4185C38.6977 41.4185 35.7173 44.3989 35.7173 48.0663C35.7173 51.7337 38.6977 54.7141 42.3651 54.7141C46.0325 54.7141 49.0129 51.7337 49.0129 48.0663C49.0129 44.3989 46.0325 41.4185 42.3651 41.4185Z" fill="white"/>
<path d="M65.5211 55.9914C61.1521 55.9914 57.5959 52.4353 57.5959 48.0663C57.5959 43.6973 61.1521 40.1411 65.5211 40.1411C69.8901 40.1411 73.4462 43.6973 73.4462 48.0663C73.4462 52.4353 69.8901 55.9914 65.5211 55.9914ZM65.5211 41.4185C61.8537 41.4185 58.8733 44.3989 58.8733 48.0663C58.8733 51.7337 61.8537 54.7141 65.5211 54.7141C69.1885 54.7141 72.1689 51.7337 72.1689 48.0663C72.1689 44.3989 69.1885 41.4185 65.5211 41.4185Z" fill="white"/>
<path d="M58.7862 44.9843H48.7661V46.1939H58.7862V44.9843Z" fill="white"/>
<path d="M64.268 57.9267C65.705 56.5575 67.2387 57.9026 67.4032 59.5524C67.5774 61.2894 66.6388 62.7215 65.2792 63.6988C62.744 65.5181 59.0572 65.01 56.5364 63.4086C55.68 62.8667 54.6785 62.049 54.4511 61.0184C54.3156 60.9991 54.3785 61.0329 54.3543 61.091C53.2125 63.9359 48.6983 65.281 45.8921 64.7197C43.502 64.2407 41.1409 62.1748 41.4022 59.5524C41.5667 57.9026 43.0714 56.5817 44.5374 57.9026C44.1939 57.9026 43.9713 57.8058 43.6665 58.0477C43.1391 58.4638 43.4198 59.4895 43.8649 59.8814C45.326 61.1587 47.063 58.5073 47.992 57.6364C49.6805 56.0543 52.6222 54.0755 54.3737 56.7172L55.1285 55.9237C56.9719 54.5206 59.4442 56.3543 60.8038 57.6364C61.7328 58.5073 63.1746 60.7765 64.6406 60.075C65.6856 59.5718 65.7824 57.5445 64.2583 57.9267H64.268Z" fill="white"/>
<path d="M103.985 34.334L100.634 45.0488L91.1413 42.078L94.4927 31.3633C90.1543 31.9641 86.3379 34.9888 84.9457 39.4443C83.023 45.5971 86.449 52.1433 92.6024 54.0709C98.7553 55.9936 105.301 52.5676 107.229 46.4142C108.621 41.9587 107.209 37.2995 103.99 34.3335L103.985 34.334Z" fill="#FDD77A"/>
</g>
</g>
<defs>
<clipPath id="clip0_27_4889">
<rect width="100" height="77.7778" fill="white" transform="translate(8 11)"/>
</clipPath>
<clipPath id="clip1_27_4889">
<rect width="104.657" height="77.8" fill="white" transform="translate(9 11)"/>
</clipPath>
</defs>
</svg>
