<svg width="108" height="100" viewBox="0 0 108 100" fill="none" xmlns="http://www.w3.org/2000/svg">
<g clip-path="url(#clip0_27_5106)">
<g clip-path="url(#clip1_27_5106)">
<path d="M97.5582 53.363C97.5582 75.5506 77.5086 78.2594 52.7815 78.2594C28.0545 78.2594 8 75.5506 8 53.363C8 31.1754 28.0496 13.1815 52.7767 13.1815C77.5038 13.1815 97.5534 31.1706 97.5534 53.3582L97.5582 53.363Z" fill="#3FAD76"/>
<path d="M17.147 37.5168L18.1966 15.2179C18.3466 12.0787 21.6261 10.0906 24.48 11.4112L44.9311 20.8966L17.147 37.5168Z" fill="#3FAD76"/>
<path d="M87.3859 37.5168L86.3363 15.2179C86.1863 12.0787 82.9068 10.0906 80.0529 11.4112L59.6018 20.8966L87.3859 37.512V37.5168Z" fill="#3FAD76"/>
<path d="M41.4436 51.7764C43.5834 51.7764 45.3181 50.0418 45.3181 47.902C45.3181 45.7621 43.5834 44.0275 41.4436 44.0275C39.3038 44.0275 37.5691 45.7621 37.5691 47.902C37.5691 50.0418 39.3038 51.7764 41.4436 51.7764Z" fill="white"/>
<path d="M63.9214 51.7764C66.0612 51.7764 67.7959 50.0418 67.7959 47.902C67.7959 45.7621 66.0612 44.0275 63.9214 44.0275C61.7815 44.0275 60.0469 45.7621 60.0469 47.902C60.0469 50.0418 61.7815 51.7764 63.9214 51.7764Z" fill="white"/>
<path d="M96.5956 68.5804L84.9382 63.2451L96.9825 36.9363L105.017 34.6436L108.64 42.2716L96.5956 68.5804Z" fill="#96E2BC"/>
<path d="M88.3823 78.3948L82.7568 75.8167L94.8011 49.5079L99.4737 46.8668L100.427 52.0812L88.3823 78.3948Z" fill="#96E2BC"/>
<path d="M80.6286 88.78C87.8041 88.78 93.6209 84.6437 93.6209 79.5412C93.6209 74.4388 87.8041 70.3024 80.6286 70.3024C73.4531 70.3024 67.6362 74.4388 67.6362 79.5412C67.6362 84.6437 73.4531 88.78 80.6286 88.78Z" fill="#96E2BC"/>
<path d="M28.4753 88.78C35.6507 88.78 41.4676 84.6437 41.4676 79.5412C41.4676 74.4388 35.6507 70.3024 28.4753 70.3024C21.2998 70.3024 15.4829 74.4388 15.4829 79.5412C15.4829 84.6437 21.2998 88.78 28.4753 88.78Z" fill="#96E2BC"/>
<path d="M69.0534 42.944H36.229C35.489 42.944 34.8892 43.5438 34.8892 44.2838C34.8892 45.0238 35.489 45.6237 36.229 45.6237H69.0534C69.7933 45.6237 70.3932 45.0238 70.3932 44.2838C70.3932 43.5438 69.7933 42.944 69.0534 42.944Z" fill="white"/>
<path d="M62.3542 54.9786C63.7908 53.6097 65.3241 54.9544 65.4886 56.6039C65.6627 58.3404 64.7243 59.7722 63.3651 60.7492C60.8305 62.568 57.1447 62.0601 54.6246 60.459C53.7684 59.9173 52.7671 59.0998 52.5398 58.0695C52.4043 58.0502 52.4672 58.084 52.443 58.1421C51.3015 60.9863 46.7885 62.331 43.983 61.7699C41.5935 61.291 39.233 59.2256 39.4942 56.6039C39.6587 54.9544 41.163 53.6339 42.6286 54.9544C42.2852 54.9544 42.0627 54.8577 41.758 55.0995C41.2307 55.5155 41.5113 56.541 41.9563 56.9328C43.4171 58.2098 45.1536 55.5591 46.0823 54.6884C47.7704 53.1067 50.7114 51.1283 52.4624 53.7694L53.217 52.9761C55.0599 51.5733 57.5316 53.4066 58.8908 54.6884C59.8196 55.5591 61.261 57.8277 62.7266 57.1263C63.7714 56.6232 63.8682 54.5965 62.3445 54.9786H62.3542Z" fill="white"/>
<path d="M84.1065 60.2956C83.3688 59.9134 82.461 60.2016 82.0788 60.9393C81.6966 61.677 81.9847 62.5848 82.7224 62.967L97.8487 70.8044C98.5864 71.1866 99.4942 70.8985 99.8765 70.1608C100.259 69.4231 99.9705 68.5153 99.2328 68.133L84.1065 60.2956Z" fill="#96E2BC"/>
</g>
</g>
<defs>
<clipPath id="clip0_27_5106">
<rect width="100" height="77.7778" fill="white" transform="translate(8 11)"/>
</clipPath>
<clipPath id="clip1_27_5106">
<rect width="100.64" height="77.78" fill="white" transform="translate(8 11)"/>
</clipPath>
</defs>
</svg>
