<svg width="108" height="100" viewBox="0 0 108 100" fill="none" xmlns="http://www.w3.org/2000/svg">
<g clip-path="url(#clip0_27_5136)">
<g clip-path="url(#clip1_27_5136)">
<path d="M98.5813 53.3739C98.5813 75.5672 78.5265 78.2767 53.7931 78.2767C29.0596 78.2767 9 75.5672 9 53.3739C9 31.1806 29.0548 13.1821 53.7882 13.1821C78.5217 13.1821 98.5764 31.1757 98.5764 53.3691L98.5813 53.3739Z" fill="#3FAD76"/>
<path d="M18.1492 37.5236L19.1991 15.219C19.3491 12.079 22.6294 10.0904 25.484 11.4113L45.9404 20.8992L18.1492 37.5236Z" fill="#3FAD76"/>
<path d="M88.4062 37.5236L87.3563 15.219C87.2063 12.079 83.926 10.0904 81.0714 11.4113L60.615 20.8992L88.4062 37.5188V37.5236Z" fill="#3FAD76"/>
<path d="M80.7618 88.8C87.9391 88.8 93.7575 84.6626 93.7575 79.5589C93.7575 74.4551 87.9391 70.3177 80.7618 70.3177C73.5845 70.3177 67.7661 74.4551 67.7661 79.5589C67.7661 84.6626 73.5845 88.8 80.7618 88.8Z" fill="#96E2BC"/>
<path d="M29.4806 88.8C36.6579 88.8 42.4763 84.6626 42.4763 79.5589C42.4763 74.4551 36.6579 70.3177 29.4806 70.3177C22.3032 70.3177 16.4849 74.4551 16.4849 79.5589C16.4849 84.6626 22.3032 88.8 29.4806 88.8Z" fill="#96E2BC"/>
<path d="M43.3715 52.9675C45.4023 52.9675 47.0486 51.3212 47.0486 49.2904C47.0486 47.2596 45.4023 45.6133 43.3715 45.6133C41.3406 45.6133 39.6943 47.2596 39.6943 49.2904C39.6943 51.3212 41.3406 52.9675 43.3715 52.9675Z" fill="white"/>
<path d="M64.6695 52.9675C66.7004 52.9675 68.3467 51.3212 68.3467 49.2904C68.3467 47.2596 66.7004 45.6133 64.6695 45.6133C62.6387 45.6133 60.9924 47.2596 60.9924 49.2904C60.9924 51.3212 62.6387 52.9675 64.6695 52.9675Z" fill="white"/>
<path d="M53.9721 51.1096L49.8982 56.3059C49.8063 56.4221 49.8886 56.5962 50.0386 56.5962H58.1863C58.3363 56.5962 58.4185 56.4221 58.3266 56.3059L54.2527 51.1096C54.1802 51.0177 54.0398 51.0177 53.9721 51.1096Z" fill="white"/>
<path d="M53.4494 78.7895L65.4581 84.0826C65.5791 84.1359 65.7097 84.0488 65.7097 83.9181V73.3319C65.7097 73.2013 65.5742 73.1142 65.4581 73.1674L53.4494 78.4605C53.3043 78.5234 53.3043 78.7266 53.4494 78.7895Z" fill="#96E2BC"/>
<path d="M56.7444 78.4605L44.7357 73.1674C44.6148 73.1142 44.4841 73.2013 44.4841 73.3319V83.9181C44.4841 84.0488 44.6196 84.1359 44.7357 84.0826L56.7444 78.7895C56.8896 78.7266 56.8896 78.5234 56.7444 78.4605Z" fill="#96E2BC"/>
<path d="M81.8395 78.4416C83.9037 77.2499 83.8279 73.254 81.6702 69.5167C79.5124 65.7794 76.0899 63.7158 74.0257 64.9076C71.9615 66.0994 72.0373 70.0952 74.195 73.8325C76.3528 77.5698 79.7753 79.6334 81.8395 78.4416Z" fill="#96E2BC"/>
<path d="M88.7027 72.7563C90.2521 68.7285 89.7046 64.7697 87.48 63.9139C85.2554 63.0582 82.196 65.6296 80.6466 69.6574C79.0973 73.6852 79.6447 77.644 81.8693 78.4998C84.094 79.3555 87.1534 76.7841 88.7027 72.7563Z" fill="#96E2BC"/>
</g>
</g>
<defs>
<clipPath id="clip0_27_5136">
<rect width="89.5813" height="77.8" fill="white" transform="translate(9 11)"/>
</clipPath>
<clipPath id="clip1_27_5136">
<rect width="89.5813" height="77.8" fill="white" transform="translate(9 11)"/>
</clipPath>
</defs>
</svg>
