<svg width="108" height="100" viewBox="0 0 108 100" fill="none" xmlns="http://www.w3.org/2000/svg">
<g clip-path="url(#clip0_27_5036)">
<g clip-path="url(#clip1_27_5036)">
<g clip-path="url(#clip2_27_5036)">
<path d="M98.5583 53.363C98.5583 75.5506 78.5086 78.2594 53.7815 78.2594C29.0545 78.2594 9 75.5506 9 53.363C9 31.1754 29.0496 13.1815 53.7767 13.1815C78.5038 13.1815 98.5534 31.1706 98.5534 53.3582L98.5583 53.363Z" fill="#3FAD76"/>
<path d="M18.147 37.5168L19.1966 15.2179C19.3466 12.0787 22.6261 10.0906 25.48 11.4112L45.9311 20.8966L18.147 37.5168Z" fill="#3FAD76"/>
<path d="M88.3859 37.5168L87.3363 15.2179C87.1863 12.0787 83.9068 10.0906 81.0529 11.4112L60.6018 20.8966L88.3859 37.512V37.5168Z" fill="#3FAD76"/>
<path d="M42.4436 51.7764C44.5834 51.7764 46.3181 50.0418 46.3181 47.902C46.3181 45.7621 44.5834 44.0275 42.4436 44.0275C40.3038 44.0275 38.5691 45.7621 38.5691 47.902C38.5691 50.0418 40.3038 51.7764 42.4436 51.7764Z" fill="white"/>
<path d="M64.9214 51.7764C67.0612 51.7764 68.7959 50.0418 68.7959 47.902C68.7959 45.7621 67.0612 44.0275 64.9214 44.0275C62.7815 44.0275 61.0469 45.7621 61.0469 47.902C61.0469 50.0418 62.7815 51.7764 64.9214 51.7764Z" fill="white"/>
<path d="M29.4753 88.78C36.6507 88.78 42.4676 84.6437 42.4676 79.5412C42.4676 74.4388 36.6507 70.3024 29.4753 70.3024C22.2998 70.3024 16.4829 74.4388 16.4829 79.5412C16.4829 84.6437 22.2998 88.78 29.4753 88.78Z" fill="#96E2BC"/>
<path d="M102.839 41.846C103.506 40.39 102.863 38.668 101.407 38.0005C99.9512 37.333 98.2292 37.9763 97.5617 39.4323L95.5447 43.8389L100.87 46.1413L102.839 41.846Z" fill="#3FAD76"/>
<path d="M95.5496 43.8437L78.6779 80.7021C78.0104 82.1581 78.6537 83.8801 80.1097 84.5476C81.5656 85.2151 83.2876 84.5718 83.9551 83.1158L100.88 46.1461L95.5544 43.8437H95.5496Z" fill="#96E2BC"/>
<path d="M81.6286 88.78C88.8041 88.78 94.6209 84.6437 94.6209 79.5412C94.6209 74.4388 88.8041 70.3024 81.6286 70.3024C74.4531 70.3024 68.6362 74.4388 68.6362 79.5412C68.6362 84.6437 74.4531 88.78 81.6286 88.78Z" fill="#96E2BC"/>
<path d="M63.6638 55.709C65.1004 54.3401 66.6337 55.6848 66.7982 57.3342C66.9723 59.0707 66.0339 60.5025 64.6747 61.4796C62.1401 63.2983 58.4542 62.7904 55.9341 61.1894C55.078 60.6476 54.0767 59.8301 53.8493 58.7999C53.7139 58.7805 53.7768 58.8144 53.7526 58.8724C52.6111 61.7166 48.0981 63.0613 45.2926 62.5002C42.9031 62.0213 40.5426 59.9559 40.8038 57.3342C40.9682 55.6848 42.4726 54.3643 43.9382 55.6848C43.5948 55.6848 43.3723 55.588 43.0675 55.8299C42.5403 56.2459 42.8208 57.2713 43.2659 57.6631C44.7266 58.9401 46.4632 56.2894 47.3919 55.4187C49.08 53.837 52.0209 51.8587 53.772 54.4997L54.5265 53.7064C56.3695 52.3037 58.8412 54.1369 60.2004 55.4187C61.1291 56.2894 62.5706 58.558 64.0362 57.8566C65.081 57.3536 65.1778 55.3268 63.6541 55.709H63.6638Z" fill="white"/>
<path d="M61.1146 58.5967H47.4692V78.3126H61.1146V58.5967Z" fill="white"/>
</g>
</g>
</g>
<defs>
<clipPath id="clip0_27_5036">
<rect width="100" height="100" fill="white" transform="translate(8)"/>
</clipPath>
<clipPath id="clip1_27_5036">
<rect width="100" height="77.7778" fill="white" transform="translate(6 11)"/>
</clipPath>
<clipPath id="clip2_27_5036">
<rect width="94.1051" height="77.78" fill="white" transform="translate(9 11)"/>
</clipPath>
</defs>
</svg>
