<svg width="108" height="100" viewBox="0 0 108 100" fill="none" xmlns="http://www.w3.org/2000/svg">
<g clip-path="url(#clip0_27_4753)">
<g clip-path="url(#clip1_27_4753)">
<path d="M97.1858 54.5212C97.1858 76.1211 77.6673 78.7581 53.5953 78.7581C29.5232 78.7581 10 76.1211 10 54.5212C10 32.9214 29.5185 15.4088 53.5906 15.4088C77.6626 15.4088 97.1811 32.9214 97.1811 54.5212H97.1858Z" fill="#3CC4C8"/>
<path d="M18.9045 39.0995L19.9264 17.3913C20.0724 14.3352 23.265 12.3999 26.0433 13.6854L45.9526 22.9196L18.9045 39.0995Z" fill="#3CC4C8"/>
<path d="M87.283 39.0995L86.2611 17.3913C86.1151 14.3352 82.9225 12.3999 80.1442 13.6854L60.2349 22.9196L87.283 39.0948V39.0995Z" fill="#3CC4C8"/>
<path d="M43.3063 52.7883C45.2828 52.7883 46.8851 51.1861 46.8851 49.2096C46.8851 47.233 45.2828 45.6308 43.3063 45.6308C41.3298 45.6308 39.7275 47.233 39.7275 49.2096C39.7275 51.1861 41.3298 52.7883 43.3063 52.7883Z" fill="white"/>
<path d="M64.0351 52.7883C66.0116 52.7883 67.6139 51.1861 67.6139 49.2096C67.6139 47.233 66.0116 45.6308 64.0351 45.6308C62.0586 45.6308 60.4563 47.233 60.4563 49.2096C60.4563 51.1861 62.0586 52.7883 64.0351 52.7883Z" fill="white"/>
<path d="M80.7046 89.0047C87.69 89.0047 93.3528 84.9779 93.3528 80.0107C93.3528 75.0434 87.69 71.0166 80.7046 71.0166C73.7192 71.0166 68.0564 75.0434 68.0564 80.0107C68.0564 84.9779 73.7192 89.0047 80.7046 89.0047Z" fill="#86DBDE"/>
<path d="M29.9329 89.0047C36.9183 89.0047 42.581 84.9779 42.581 80.0107C42.581 75.0434 36.9183 71.0166 29.9329 71.0166C22.9475 71.0166 17.2847 75.0434 17.2847 80.0107C17.2847 84.9779 22.9475 89.0047 29.9329 89.0047Z" fill="#86DBDE"/>
<path d="M53.6236 50.9801L49.6587 56.0375C49.5692 56.1505 49.6493 56.32 49.7952 56.32H57.7251C57.8711 56.32 57.9511 56.1505 57.8616 56.0375L53.8967 50.9801C53.8261 50.8906 53.6895 50.8906 53.6236 50.9801Z" fill="white"/>
<path d="M65 11H42V25H65V11Z" fill="#86DBDE"/>
<path d="M59.0107 16.6867H48.0859V19.6392H59.0107V16.6867Z" fill="#3CC4C8"/>
<path d="M55.0269 23.6276V12.7029H52.0744V23.6276H55.0269Z" fill="#3CC4C8"/>
</g>
</g>
<defs>
<clipPath id="clip0_27_4753">
<rect width="100" height="77.7778" fill="white" transform="translate(8 11)"/>
</clipPath>
<clipPath id="clip1_27_4753">
<rect width="87.1858" height="80" fill="white" transform="translate(10 9)"/>
</clipPath>
</defs>
</svg>
