<svg width="108" height="100" viewBox="0 0 108 100" fill="none" xmlns="http://www.w3.org/2000/svg">
<g clip-path="url(#clip0_27_4920)">
<g clip-path="url(#clip1_27_4920)">
<path d="M107.526 41.0129C106.245 44.273 103.17 46.1203 100.661 45.1328C98.152 44.1454 97.1551 40.7011 98.4355 37.441C99.7158 34.181 105.3 33.3211 105.3 33.3211C105.3 33.3211 108.806 37.7529 107.526 41.0129Z" fill="#F3BF3B"/>
<path d="M97.4777 53.4058C97.4777 75.0779 77.8939 77.7238 53.7412 77.7238C29.5886 77.7238 10 75.0779 10 53.4058C10 31.7336 29.5839 14.1624 53.7365 14.1624C77.8892 14.1624 97.473 31.7336 97.473 53.4058H97.4777Z" fill="#F3BF3B"/>
<path d="M18.9343 37.9324L19.9596 16.1515C20.1061 13.0852 23.3094 11.1434 26.097 12.4332L46.073 21.6983L18.9343 37.9324Z" fill="#F3BF3B"/>
<path d="M87.5417 37.9324L86.5165 16.1515C86.37 13.0852 83.1667 11.1434 80.3791 12.4332L60.4031 21.6983L87.5417 37.9277V37.9324Z" fill="#F3BF3B"/>
<path d="M98.1753 41.7919L104.366 44.6261L87.3056 81.8884C86.6546 83.3104 84.9719 83.9326 83.5543 83.2835L82.5147 82.8076C81.0927 82.1565 80.4705 80.4739 81.1196 79.0562L98.1796 41.7939L98.1753 41.7919Z" fill="#FDD77A"/>
<path d="M80.9413 88C87.9501 88 93.6318 83.9597 93.6318 78.9758C93.6318 73.9919 87.9501 69.9517 80.9413 69.9517C73.9325 69.9517 68.2507 73.9919 68.2507 78.9758C68.2507 83.9597 73.9325 88 80.9413 88Z" fill="#FDD77A"/>
<path d="M29.9996 88C37.0084 88 42.6901 83.9597 42.6901 78.9758C42.6901 73.9919 37.0084 69.9517 29.9996 69.9517C22.9908 69.9517 17.3091 73.9919 17.3091 78.9758C17.3091 83.9597 22.9908 88 29.9996 88Z" fill="#FDD77A"/>
<path d="M43.5642 53.0089C45.5473 53.0089 47.1549 51.4013 47.1549 49.4181C47.1549 47.435 45.5473 45.8274 43.5642 45.8274C41.581 45.8274 39.9734 47.435 39.9734 49.4181C39.9734 51.4013 41.581 53.0089 43.5642 53.0089Z" fill="white"/>
<path d="M64.3623 53.0089C66.3454 53.0089 67.953 51.4013 67.953 49.4181C67.953 47.435 66.3454 45.8274 64.3623 45.8274C62.3791 45.8274 60.7715 47.435 60.7715 49.4181C60.7715 51.4013 62.3791 53.0089 64.3623 53.0089Z" fill="white"/>
<path d="M53.9161 51.1993L49.9379 56.2737C49.8481 56.3871 49.9284 56.5572 50.0749 56.5572H58.0313C58.1777 56.5572 58.2581 56.3871 58.1683 56.2737L54.1901 51.1993C54.1192 51.1096 53.9822 51.1096 53.9161 51.1993Z" fill="white"/>
<path d="M53.264 29.4374C64.6279 29.4374 73.8401 25.0862 73.8401 19.7187C73.8401 14.3512 64.6279 10 53.264 10C41.9002 10 32.688 14.3512 32.688 19.7187C32.688 25.0862 41.9002 29.4374 53.264 29.4374Z" fill="#FDD77A"/>
</g>
</g>
<defs>
<clipPath id="clip0_27_4920">
<rect width="100" height="77.7778" fill="white" transform="translate(8 11)"/>
</clipPath>
<clipPath id="clip1_27_4920">
<rect width="104.657" height="77.8" fill="white" transform="translate(9 11)"/>
</clipPath>
</defs>
</svg>
