<svg width="148" height="32" viewBox="0 0 148 32" fill="none" xmlns="http://www.w3.org/2000/svg">
<g clip-path="url(#clip0_256_924)">
<path d="M58.537 9.97547C58.1407 9.64241 57.6625 9.40404 57.1122 9.2669C56.5751 9.13302 55.8512 9.06445 54.9603 9.06445H45.6158L45.5601 9.69139L45.7009 9.73058C45.9433 9.79915 46.0415 9.87425 46.0841 9.92649C46.1365 9.99507 46.1595 10.1126 46.1464 10.2661L45.1408 21.7077C45.1277 21.871 45.0819 21.9885 45.0098 22.0669C44.9541 22.1224 44.8362 22.204 44.5709 22.2759L44.4497 22.3085L44.394 22.942H53.8598C54.7442 22.942 55.5073 22.8604 56.1264 22.7036C56.7519 22.5436 57.3219 22.2791 57.8197 21.9167C58.8056 21.1885 59.3657 20.1698 59.477 18.8865C59.608 17.3845 59.0152 16.3036 57.7116 15.6702C58.8285 15.053 59.4476 14.1028 59.5589 12.8424C59.667 11.6049 59.3231 10.6416 58.5337 9.97547H58.537ZM48.8715 17.0253H53.7353C54.6361 17.0253 55.2682 17.1461 55.6187 17.3812C56.0084 17.6489 56.1722 18.0734 56.1198 18.6775C56.0641 19.2979 55.8217 19.7289 55.373 19.9967C54.9702 20.2351 54.3118 20.3591 53.4144 20.3591H48.5799L48.8715 17.0285V17.0253ZM55.6776 14.1257C55.3763 14.3347 54.8457 14.4391 54.0989 14.4391H49.0974L49.3431 11.644H54.3773C55.1208 11.644 55.6383 11.7518 55.9167 11.9673C56.1788 12.1698 56.2836 12.5159 56.2377 13.0253C56.1919 13.5314 56.0117 13.8906 55.6776 14.1224V14.1257Z" fill="white"/>
<path d="M75.3822 8.54208C75.2905 8.79351 75.1955 8.9078 75.1332 8.96004C75.0514 9.02535 74.9334 9.06126 74.7762 9.06126H62.5297L62.474 9.6882L62.6149 9.72739C62.8572 9.79596 62.9555 9.87106 62.9981 9.9233C63.0505 9.99188 63.0734 10.1094 63.0603 10.2629L62.0548 21.7045C62.0417 21.8678 61.9958 21.9853 61.9238 22.0637C61.8681 22.1192 61.7502 22.2009 61.4849 22.2727L61.3637 22.3053L61.308 22.9388H73.8264C73.977 22.9388 74.0851 22.9682 74.1474 23.0302C74.1965 23.076 74.262 23.1804 74.3111 23.4286L74.3373 23.5723H74.9662L75.3036 19.7192H74.6649L74.6223 19.8368C74.5273 20.0947 74.4356 20.2058 74.3766 20.2547C74.2948 20.32 74.1736 20.3527 74.0196 20.3527H65.4873L65.7821 17.0025H71.1242C71.2749 17.0025 71.3797 17.0351 71.4452 17.0939C71.4943 17.1429 71.5631 17.2507 71.609 17.4923L71.6384 17.636H72.2673L72.5981 13.8613H71.9594L71.9168 13.9788C71.8219 14.2368 71.7302 14.3478 71.6712 14.3968C71.5926 14.4621 71.4714 14.4947 71.3142 14.4947H66.0048L66.2538 11.6409H74.5764C74.7271 11.6409 74.8352 11.6702 74.8974 11.7323C74.9465 11.778 75.0121 11.8858 75.0612 12.1307L75.0907 12.2743H75.7195L76.0569 8.42126H75.4182L75.3756 8.53882L75.3822 8.54208Z" fill="white"/>
<path d="M89.7577 9.68816L89.8985 9.72734C90.1409 9.79591 90.2392 9.87101 90.2817 9.92326C90.3374 9.99183 90.3571 10.1029 90.344 10.2531L89.6758 17.8612L83.148 10.4163C83.0137 10.2661 82.9515 10.129 82.958 10.0245C82.9679 9.92326 83.0137 9.79591 83.2921 9.72408L83.4166 9.69469L83.4723 9.05795H78.5036L78.4479 9.68489L78.5887 9.72408C78.8311 9.79265 78.9294 9.86775 78.9719 9.91999C79.0276 9.98856 79.0473 10.0996 79.0342 10.2498L78.0286 21.7012C78.0155 21.8645 77.9697 21.982 77.8976 22.0604C77.8419 22.1159 77.724 22.1975 77.4587 22.2694L77.3375 22.302L77.2819 22.9355H81.625L81.6807 22.3086L81.5398 22.2694C81.2974 22.2008 81.1992 22.1257 81.1566 22.0735C81.1042 22.0049 81.0813 21.8873 81.0976 21.7339L81.7822 13.9233L88.4246 21.44C88.8078 21.8678 88.8078 21.9951 88.8078 21.9984C88.8013 22.0604 88.7914 22.2041 88.4934 22.2661L88.3624 22.2922L88.3067 22.9322H92.938L92.9937 22.3053L92.8529 22.2661C92.6105 22.1975 92.5122 22.1224 92.4697 22.0702C92.4173 22.0016 92.3943 21.8873 92.4107 21.7306L93.4162 10.2792C93.4293 10.1224 93.4752 10.0049 93.5472 9.92979C93.6029 9.87428 93.7208 9.79265 93.9862 9.72081L94.1073 9.68816L94.163 9.05469H89.8199L89.7642 9.68163L89.7577 9.68816Z" fill="white"/>
<path d="M109.6 8.54208C109.508 8.79351 109.413 8.9078 109.351 8.96004C109.269 9.02535 109.151 9.06126 108.994 9.06126H96.7473L96.6917 9.6882L96.8325 9.72739C97.0749 9.79596 97.1731 9.87106 97.2157 9.9233C97.2681 9.99188 97.2911 10.1094 97.2779 10.2629L96.2724 21.7045C96.2593 21.8678 96.2135 21.9853 96.1414 22.0637C96.0857 22.1192 95.9678 22.2009 95.7025 22.2727L95.5813 22.3053L95.5256 22.9388H108.044C108.195 22.9388 108.303 22.9682 108.365 23.0302C108.414 23.076 108.48 23.1804 108.529 23.4286L108.555 23.5723H109.184L109.521 19.7192H108.883L108.84 19.8368C108.745 20.0947 108.653 20.2058 108.594 20.2547C108.512 20.32 108.391 20.3527 108.237 20.3527H99.7083L100.003 17.0025H105.345C105.496 17.0025 105.601 17.0351 105.666 17.0939C105.715 17.1429 105.784 17.2507 105.83 17.4923L105.859 17.636H106.488L106.819 13.8613H106.18L106.138 13.9788C106.043 14.2368 105.951 14.3478 105.892 14.3968C105.814 14.4621 105.692 14.4947 105.535 14.4947H100.226L100.475 11.6409H108.797C108.948 11.6409 109.056 11.6702 109.118 11.7323C109.167 11.778 109.233 11.8858 109.282 12.1307L109.312 12.2743H109.94L110.278 8.42126H109.639L109.597 8.53882L109.6 8.54208Z" fill="white"/>
<path d="M125.492 8.54532C125.397 8.80654 125.305 8.91756 125.246 8.96654C125.164 9.03185 125.046 9.0645 124.889 9.0645H112.721L112.666 9.69144L112.806 9.73062C113.049 9.79919 113.147 9.8743 113.19 9.92654C113.242 9.99511 113.265 10.1127 113.252 10.2661L112.246 21.7078C112.233 21.871 112.187 21.9886 112.115 22.0669C112.06 22.1225 111.942 22.2041 111.676 22.2759L111.555 22.3086L111.5 22.9421H116.092L116.147 22.3151L116.003 22.2759C115.771 22.2139 115.669 22.1388 115.626 22.0865C115.571 22.0147 115.548 21.8972 115.561 21.7404L115.974 17.0286H121.306C121.463 17.0286 121.574 17.058 121.637 17.12C121.686 17.1657 121.751 17.2735 121.8 17.5184L121.83 17.6621H122.459L122.79 13.8874H122.151L122.108 14.0049C122.013 14.2596 121.922 14.3706 121.859 14.4229C121.778 14.4882 121.656 14.5241 121.493 14.5241H116.193L116.445 11.6506H124.689C124.84 11.6506 124.951 11.68 125.014 11.7388C125.053 11.7747 125.125 11.8727 125.174 12.1404L125.2 12.2841H125.829L126.167 8.43103H125.528L125.485 8.54858L125.492 8.54532Z" fill="white"/>
<path d="M127.981 9.68818L128.122 9.72736C128.364 9.79593 128.462 9.87102 128.505 9.92326C128.561 9.99183 128.58 10.1028 128.567 10.253L127.562 21.7037C127.549 21.867 127.503 21.9845 127.431 22.0629C127.375 22.1184 127.257 22.2 126.992 22.2719L126.871 22.3045L126.815 22.9379H131.407L131.462 22.311L131.318 22.2719C131.086 22.2098 130.984 22.1347 130.942 22.0825C130.886 22.0107 130.863 21.8931 130.876 21.7364L131.882 10.2857C131.895 10.129 131.941 10.0082 132.013 9.9298C132.065 9.87429 132.183 9.79266 132.445 9.72736L132.569 9.69797L132.625 9.06128H128.033L127.978 9.68818H127.981Z" fill="white"/>
<path d="M147.361 8.42773L147.319 8.54529C147.224 8.80651 147.132 8.91753 147.073 8.96651C146.991 9.03182 146.87 9.06447 146.706 9.06447H135.328C135.226 9.06447 135.085 9.04814 135.01 8.97957C134.971 8.94365 134.899 8.83916 134.84 8.57141L134.81 8.431H134.185L133.847 12.2841H134.486L134.528 12.1665C134.623 11.9053 134.715 11.7943 134.774 11.7486C134.856 11.6832 134.974 11.6506 135.131 11.6506H139.15L138.269 21.711C138.256 21.8743 138.21 21.9918 138.138 22.0702C138.082 22.1257 137.964 22.2073 137.699 22.2792L137.578 22.3118L137.522 22.9453H142.114L142.17 22.3183L142.029 22.2792C141.787 22.2106 141.688 22.1355 141.646 22.0832C141.593 22.0147 141.57 21.8971 141.587 21.7437L142.471 11.6506H146.513C146.67 11.6506 146.785 11.68 146.847 11.7388C146.886 11.7747 146.958 11.8726 147.008 12.1404L147.034 12.2841H147.663L148 8.431H147.361V8.42773Z" fill="white"/>
<path d="M20.1663 0.799925L20.068 0.721558L0.903931 15.9999L19.9697 31.1999L20.068 31.2783L39.2321 15.9999L20.1663 0.799925Z" fill="#231916"/>
<path d="M23.2249 15.2257C23.1332 15.1963 23.0382 15.1702 22.9432 15.1441C23.2609 14.9776 23.5688 14.7915 23.8668 14.5858C24.5841 14.0895 25.2456 13.3875 25.3111 12.5712C25.4487 10.8407 22.8646 9.60324 19.5403 9.80241C16.7237 9.97219 13.9071 11.0236 13.5108 12.519C13.0949 14.0895 14.8569 14.158 14.8569 14.158C14.8831 13.5736 15.168 13.012 15.5807 12.5418C16.5632 11.4317 18.1026 10.9158 19.596 10.9158C19.8318 10.9158 20.0644 10.9289 20.2969 10.9517C21.2139 11.0497 22.1768 11.3403 22.7926 11.9508C23.3723 12.5222 23.4509 13.3254 22.8515 13.9948C22.6026 14.2723 22.2718 14.5107 21.9345 14.6968C21.2696 15.0625 20.4901 15.3008 19.7696 15.4706L20.4803 11.4709C20.1037 11.4284 19.6812 11.4317 19.2194 11.5003C18.4399 11.6178 17.6702 11.8953 17.025 12.3361C16.9137 12.4112 16.8089 12.4928 16.7074 12.5777C16.5174 12.7377 16.3569 12.9042 16.2325 13.074C16.2325 13.074 16.4617 12.9271 16.7401 12.9532C16.8253 12.963 16.8809 13.0349 16.8678 13.1132L16.3798 15.8657C16.3176 15.8657 16.2554 15.8657 16.1932 15.8657C15.5283 15.8657 14.9126 15.8069 14.3886 15.709C14.3886 15.709 15.1713 16.091 16.3143 16.2477L15.548 20.5576C15.4137 21.1127 15.1779 21.547 14.2575 21.547C14.2805 21.547 14.7979 22.2326 16.5862 22.2326C17.4836 22.2326 18.3482 21.9845 18.6855 21.2858C19.262 22.1967 20.7358 22.3828 21.941 22.089C23.7063 21.6612 25.1703 20.1985 25.4291 18.5953C25.6845 17.0117 24.8264 15.7514 23.2249 15.2323V15.2257ZM21.4498 20.2768C20.7128 20.7242 19.6386 20.8482 18.8755 20.5087C19.0622 19.4638 19.5502 16.7146 19.5502 16.7146C18.4956 16.7114 17.7488 16.473 17.3526 16.3097C18.7347 16.3261 20.0054 16.1889 21.1714 15.8526C22.167 15.993 22.8712 16.9922 22.7729 18.2068C22.7074 19.0165 22.2194 19.8099 21.4498 20.2768Z" fill="white"/>
<path d="M20.0681 32L0 16L20.0681 0L40.1362 16L20.0681 32ZM1.15292 16L20.0681 31.0792L38.9832 16L20.0681 0.920816L1.15292 16Z" fill="#E1C95F"/>
<path d="M20.0681 28.8783L3.91736 15.9999L20.0681 3.12158L36.2189 15.9999L20.0681 28.8783ZM4.49382 15.9999L20.0681 28.4179L35.6424 15.9999L20.0681 3.58199L4.49382 15.9999Z" fill="#F39800"/>
</g>
<defs>
<clipPath id="clip0_256_924">
<rect width="148" height="32" fill="white"/>
</clipPath>
</defs>
</svg>
