<svg width="162" height="28" viewBox="0 0 162 28" fill="none" xmlns="http://www.w3.org/2000/svg">
<g clip-path="url(#clip0_3_179)">
<path d="M49.1966 14.743C49.1966 19.1501 49.1351 23.5622 49.0171 26.8931H41.6914C40.5526 18.1354 40.4603 10.0644 41.0605 1.30673H50.5202C52.4439 5.02708 54.3061 9.7672 55.8656 14.6559C57.4251 9.7672 59.2873 5.02708 61.2111 1.30673H70.6708C71.271 10.0644 71.1838 18.1354 70.0398 26.8931H62.7142C62.5962 23.5622 62.5346 19.2167 62.5346 14.8045C61.5137 19.0015 60.3133 23.2343 59.0206 26.5908H52.7466C51.4538 23.2291 50.2226 18.94 49.2018 14.743H49.1966Z" fill="#6C60C6"/>
<path d="M82.5826 27.0417H74.7748C73.5743 18.1611 73.482 10.213 74.0822 1.33748C77.0268 1.18887 79.638 1.12738 82.5826 1.12738H84.6859C93.3351 1.36823 97.5058 3.79722 97.5058 9.28551C97.5058 11.0534 96.9928 12.7343 95.2845 14.0564C97.2646 15.194 98.3471 16.8748 98.3471 19.5754C98.3471 24.9766 93.7814 27.0417 86.0351 27.0417H82.5826ZM84.927 11.4429C86.938 11.4122 88.5283 11.1406 88.5283 9.91069C88.5283 8.68082 86.938 8.50147 85.0142 8.47072C84.2037 8.47072 83.3316 8.50147 82.521 8.56296C82.4595 9.52123 82.4595 10.4539 82.4903 11.3814C83.3008 11.4429 84.1113 11.4429 84.9219 11.4429H84.927ZM82.6442 20.1698C83.4855 20.2313 84.3576 20.2313 85.1681 20.2313C87.3894 20.2006 89.0105 19.9597 89.0105 18.5198C89.0105 17.172 87.3894 16.9619 85.2553 16.9619H82.6442C82.5826 18.0124 82.5826 19.0937 82.6442 20.1698Z" fill="#6C60C6"/>
<path d="M106.873 9.85433C104.113 9.85433 101.558 9.91583 99.6347 10.0337L99.5424 1.21451C105.606 0.702065 117.41 0.794305 123.566 1.30675L123.474 10.1259C121.524 10.0081 119 9.94658 116.235 9.88508C116.297 15.5527 116.174 21.1333 115.722 26.8931H107.376C106.924 21.1333 106.806 15.5271 106.863 9.85433H106.873Z" fill="#6C60C6"/>
<path d="M125.608 9.8082H134.437C134.678 16.4392 134.555 20.2621 134.077 26.8931H125.972C125.49 20.2621 125.372 16.4392 125.613 9.8082H125.608Z" fill="#6C60C6"/>
<path d="M146.507 27.0417C143.804 27.0417 141.131 27.0417 138.428 26.8931C137.227 18.1662 137.135 10.0952 137.735 1.33748C140.618 1.18887 143.501 1.12738 146.384 1.12738H147.646C156.865 1.12738 162 6.31845 162 14.205C162 22.0915 156.203 27.0417 147.349 27.0417H146.507ZM146.477 19.2423C147.918 19.3038 149.267 19.0937 150.473 18.5505C153.536 17.1105 153.653 11.4122 150.591 9.70059C149.508 9.10103 148.011 8.92167 146.384 9.03953C146.205 12.1911 146.266 16.0908 146.477 19.2372V19.2423Z" fill="#6C60C6"/>
<path d="M36.0125 17.9971C36.0125 26.9085 27.9533 27.9949 18.0063 27.9949C8.05922 27.9949 0 26.9136 0 17.9971C0 9.08052 8.05922 1.86017 18.0063 1.86017C27.9533 1.86017 36.0125 9.08564 36.0125 17.9971Z" fill="#6C60C6"/>
<path d="M3.67819 11.6376L4.09885 2.68008C4.16041 1.41946 5.47882 0.62005 6.62281 1.15299L14.8462 4.96558L3.67819 11.6376Z" fill="#6C60C6"/>
<path d="M31.9188 11.6376L31.4982 2.68008C31.4366 1.41946 30.1182 0.62005 28.9742 1.15299L20.7508 4.96558L31.9239 11.6376H31.9188Z" fill="#6C60C6"/>
<path d="M13.4457 17.3668C14.307 17.3668 15.0052 16.6693 15.0052 15.8089C15.0052 14.9486 14.307 14.2511 13.4457 14.2511C12.5844 14.2511 11.8862 14.9486 11.8862 15.8089C11.8862 16.6693 12.5844 17.3668 13.4457 17.3668Z" fill="white"/>
<path d="M22.4847 17.3668C23.346 17.3668 24.0443 16.6693 24.0443 15.8089C24.0443 14.9486 23.346 14.2511 22.4847 14.2511C21.6235 14.2511 20.9252 14.9486 20.9252 15.8089C20.9252 16.6693 21.6235 17.3668 22.4847 17.3668Z" fill="white"/>
<path d="M17.8165 18.0278L15.744 20.672C15.6465 20.795 15.7337 20.9795 15.8927 20.9795H20.0378C20.1968 20.9795 20.284 20.795 20.1865 20.672L18.114 18.0278C18.0371 17.9305 17.8883 17.9305 17.8165 18.0278Z" fill="white"/>
<path d="M125.151 4.31991C125.151 1.74231 126.952 0 130.015 0C133.077 0 134.878 1.76794 134.878 4.31991C134.878 6.87189 133.077 8.63983 130.015 8.63983C126.952 8.63983 125.151 6.95901 125.151 4.31991Z" fill="#24BAE2"/>
</g>
<defs>
<clipPath id="clip0_3_179">
<rect width="162" height="28" fill="white"/>
</clipPath>
</defs>
</svg>
